<?xml version="1.0" encoding="utf-8"?>
<!-- Generator: Adobe Illustrator 16.0.0, SVG Export Plug-In . SVG Version: 6.00 Build 0)  -->
<!DOCTYPE svg PUBLIC "-//W3C//DTD SVG 1.1//EN" "http://www.w3.org/Graphics/SVG/1.1/DTD/svg11.dtd">
<svg version="1.1" xmlns="http://www.w3.org/2000/svg" xmlns:xlink="http://www.w3.org/1999/xlink" x="0px" y="0px" width="32px"
	 height="32px" viewBox="0 0 32 32" enable-background="new 0 0 32 32" xml:space="preserve">
<g id="레이어_1">
</g>
<g id="새플">
</g>
<g id="아이콘">
	<path fill="#BCBCBB" d="M20.955,20.955h7.862v7.862h-7.862V20.955z M20.659,18.006c-1.465,0-2.652,1.188-2.652,2.653v8.452
		c0,1.465,1.188,2.653,2.652,2.653h8.453c1.465,0,2.653-1.188,2.653-2.653v-8.452c0-1.465-1.188-2.653-2.653-2.653H20.659z
		 M3.265,3.265h8.845v8.844H3.265V3.265z M2.97,0.316c-1.466,0-2.654,1.188-2.654,2.653v9.435c0,1.465,1.188,2.653,2.654,2.653
		h9.433c1.466,0,2.654-1.188,2.654-2.653V2.97c0-1.465-1.188-2.653-2.654-2.653H2.97z M2.97,18.006
		c-1.466,0-2.654,1.188-2.654,2.653v8.452c0,1.465,1.188,2.653,2.654,2.653h9.433c1.466,0,2.654-1.188,2.654-2.653v-8.452
		c0-1.465-1.188-2.653-2.654-2.653H2.97z M20.659,0.316c-1.465,0-2.652,1.188-2.652,2.653v9.435c0,1.465,1.188,2.653,2.652,2.653
		h8.453c1.465,0,2.653-1.188,2.653-2.653V2.97c0-1.465-1.188-2.653-2.653-2.653H20.659z"/>
</g>
<g id="book">
</g>
<g id="레이어_4">
</g>
<g id="레이어_6">
</g>
</svg>
