<?xml version="1.0" encoding="utf-8"?>
<!-- Generator: Adobe Illustrator 19.1.0, SVG Export Plug-In . SVG Version: 6.00 Build 0)  -->
<svg version="1.1" id="아이콘" xmlns="http://www.w3.org/2000/svg" xmlns:xlink="http://www.w3.org/1999/xlink" x="0px" y="0px"
	 viewBox="0 0 20 34" enable-background="new 0 0 20 34" xml:space="preserve">
<g opacity="0.8">
	<path opacity="0.5" fill="#FF746D" d="M18.051,32.792c-0.256,0-0.512-0.098-0.707-0.293L2.081,17.236
		c-0.391-0.391-0.391-1.023,0-1.414L16.818,1.085c0.391-0.391,1.023-0.391,1.414,0s0.391,1.023,0,1.414l-14.03,14.03l14.556,14.556
		c0.391,0.391,0.391,1.023,0,1.414C18.563,32.694,18.307,32.792,18.051,32.792z"/>
	<path opacity="0.5" fill="#FF746D" d="M1.948,33.208c-0.552,0-1-0.447-1-1v-30c0-0.553,0.448-1,1-1s1,0.447,1,1v30
		C2.948,32.761,2.5,33.208,1.948,33.208z"/>
</g>
</svg>
