<?xml version="1.0" encoding="utf-8"?>
<!-- Generator: Adobe Illustrator 19.1.0, SVG Export Plug-In . SVG Version: 6.00 Build 0)  -->
<svg version="1.1" id="아이콘" xmlns="http://www.w3.org/2000/svg" xmlns:xlink="http://www.w3.org/1999/xlink" x="0px" y="0px"
	 viewBox="0 0 20 34" enable-background="new 0 0 20 34" xml:space="preserve">
<g opacity="0.8">
	<path opacity="0.5" fill="#FF746D" d="M2.446,33c-0.256,0-0.512-0.098-0.707-0.293c-0.391-0.391-0.391-1.023,0-1.414l14.03-14.03
		L1.213,2.707c-0.391-0.391-0.391-1.023,0-1.414s1.023-0.391,1.414,0L17.89,16.556c0.391,0.391,0.391,1.023,0,1.414L3.153,32.707
		C2.958,32.902,2.702,33,2.446,33z"/>
	<path opacity="0.5" fill="#FF746D" d="M18.08,33c-0.552,0-1-0.447-1-1V2c0-0.553,0.448-1,1-1s1,0.447,1,1v30
		C19.08,32.553,18.632,33,18.08,33z"/>
</g>
</svg>
