<?xml version="1.0" encoding="utf-8"?>
<!-- Generator: Adobe Illustrator 19.1.0, SVG Export Plug-In . SVG Version: 6.00 Build 0)  -->
<svg version="1.1" id="아이콘" xmlns="http://www.w3.org/2000/svg" xmlns:xlink="http://www.w3.org/1999/xlink" x="0px" y="0px"
	 viewBox="0 0 68 60.343" enable-background="new 0 0 68 60.343" xml:space="preserve">
<g>
	<path fill="#FF746D" stroke="#FF746D" stroke-width="0.2" stroke-miterlimit="10" d="M27.459,51.478
		c0.181,0,0.325,0.055,0.435,0.163c0.109,0.109,0.164,0.262,0.164,0.459c0,0.188-0.05,0.334-0.149,0.438s-0.217,0.155-0.35,0.155
		c-0.038,0-0.123,0.003-0.256,0.008c-0.134,0.005-0.28,0.008-0.442,0.008h-0.612c-0.418,0-0.853-0.003-1.304-0.008
		s-0.905-0.008-1.361-0.008v0.75c0,0.171-0.002,0.325-0.007,0.466c-0.005,0.14-0.007,0.279-0.007,0.42
		c0.284-0.01,0.589-0.021,0.911-0.03c0.323-0.01,0.685-0.025,1.083-0.045c0.237-0.01,0.439,0.035,0.606,0.135
		c0.166,0.101,0.249,0.351,0.249,0.75c0,0.101,0.002,0.23,0.007,0.39c0.005,0.16,0.008,0.375,0.008,0.646c0,0.23,0,0.468,0,0.712
		c0,0.245-0.003,0.48-0.008,0.705c-0.005,0.226-0.01,0.423-0.014,0.593c-0.005,0.17-0.013,0.295-0.021,0.375
		c-0.02,0.24-0.104,0.402-0.257,0.487s-0.313,0.128-0.484,0.128c-0.133,0-0.262-0.058-0.385-0.173
		c-0.124-0.115-0.19-0.272-0.199-0.473c0.009-0.26,0.017-0.569,0.021-0.93c0.004-0.36,0.007-0.685,0.007-0.975
		c0-0.22-0.003-0.4-0.007-0.54c-0.005-0.141-0.008-0.265-0.008-0.375c0-0.061-0.014-0.107-0.042-0.143
		c-0.029-0.035-0.086-0.053-0.172-0.053c-0.218,0-0.432,0-0.641,0s-0.418,0.005-0.627,0.015c-0.361,0.011-0.718,0.018-1.069,0.022
		c-0.352,0.006-0.722,0.008-1.111,0.008c-0.257,0-0.518-0.01-0.783-0.03c-0.267-0.02-0.547-0.02-0.841,0
		c-0.152,0.011-0.295-0.024-0.428-0.104s-0.204-0.23-0.214-0.45c-0.01-0.2,0.04-0.357,0.149-0.473
		c0.109-0.114,0.259-0.172,0.449-0.172c0.408,0.01,0.776,0.015,1.104,0.015c0.327,0,0.644,0,0.947,0l0.471-0.015v-1.636h-2.637
		c-0.048,0-0.145,0-0.292,0s-0.307,0-0.478,0s-0.33,0-0.478,0s-0.249,0-0.306,0c-0.162-0.02-0.295-0.081-0.399-0.185
		s-0.156-0.25-0.156-0.438c0-0.167,0.062-0.304,0.185-0.407c0.124-0.104,0.262-0.155,0.413-0.155c0.77-0.01,1.53-0.01,2.28,0
		s1.529,0.015,2.337,0.015c0.627,0,1.264-0.002,1.91-0.007c0.646-0.005,1.325-0.013,2.037-0.022h0.499
		C27.284,51.493,27.374,51.488,27.459,51.478z M24.994,45.59c0.019-0.084,0.055-0.162,0.106-0.232
		c0.053-0.069,0.123-0.122,0.214-0.157c0.09-0.035,0.207-0.042,0.35-0.022c0.18,0.021,0.311,0.093,0.392,0.218
		c0.08,0.125,0.116,0.257,0.106,0.397c-0.019,0.66-0.021,1.308-0.007,1.942s0.007,1.232-0.021,1.792
		c-0.02,0.261-0.083,0.445-0.192,0.556s-0.354,0.17-0.733,0.18c-0.076,0-0.192,0-0.35,0c-0.156,0-0.33,0.003-0.52,0.008
		c-0.19,0.005-0.393,0.007-0.606,0.007s-0.415,0-0.605,0c-0.256,0-0.524,0-0.805,0s-0.547-0.002-0.798-0.007
		c-0.252-0.005-0.482-0.01-0.691-0.016c-0.209-0.005-0.371-0.012-0.484-0.022c-0.267-0.02-0.463-0.069-0.592-0.149
		c-0.128-0.08-0.192-0.265-0.192-0.556c0-0.289,0.005-0.592,0.015-0.907c0.009-0.314,0.009-0.662,0-1.042c0-0.101,0-0.203,0-0.308
		c0-0.105,0-0.226,0-0.36s0-0.295,0-0.479c0-0.186,0-0.408,0-0.668c-0.02-0.189,0.043-0.335,0.185-0.435
		c0.143-0.101,0.3-0.15,0.471-0.15c0.152,0,0.292,0.043,0.42,0.128c0.129,0.085,0.197,0.223,0.207,0.412v1.095h4.104v-0.975
		C24.966,45.758,24.975,45.676,24.994,45.59z M24.937,49.107c0-0.1,0.003-0.192,0.008-0.277c0.004-0.085,0.007-0.167,0.007-0.247
		s0-0.168,0-0.263s0-0.207,0-0.338h-4.118c0,0.11,0,0.203,0,0.277c0,0.075,0,0.15,0,0.226s-0.003,0.157-0.007,0.247
		c-0.005,0.09-0.008,0.2-0.008,0.33L24.937,49.107z"/>
	<path fill="#FF746D" stroke="#FF746D" stroke-width="0.2" stroke-miterlimit="10" d="M29.083,46.857
		c0-0.199,0.045-0.367,0.136-0.502c0.09-0.135,0.264-0.223,0.521-0.263c0.294,0.021,0.598,0.032,0.911,0.037
		c0.313,0.006,0.622,0.008,0.927,0.008c0.275,0,0.544-0.005,0.805-0.015c0.262-0.01,0.506-0.03,0.734-0.061
		c0.095-0.01,0.197-0.007,0.307,0.008c0.108,0.015,0.208,0.055,0.299,0.12c0.09,0.065,0.166,0.157,0.228,0.277
		c0.063,0.12,0.093,0.28,0.093,0.479c0,0.141,0,0.368,0,0.683c0,0.315,0,0.681,0,1.096s0.003,0.864,0.008,1.35
		c0.004,0.485,0.007,0.973,0.007,1.463c0,0.489,0,0.962,0,1.417s0,0.857,0,1.208c0,0.12-0.005,0.242-0.015,0.367
		c-0.009,0.125-0.038,0.235-0.085,0.33c-0.048,0.095-0.121,0.167-0.221,0.218c-0.101,0.05-0.24,0.06-0.421,0.029
		c-0.209-0.029-0.482-0.037-0.819-0.022c-0.337,0.016-0.705,0.028-1.104,0.038c-0.199,0.01-0.428,0.02-0.684,0.029
		c-0.257,0.011-0.57,0.016-0.94,0.016c-0.066,0-0.138-0.01-0.214-0.03c-0.076-0.02-0.147-0.058-0.214-0.112
		s-0.124-0.133-0.171-0.232c-0.048-0.1-0.076-0.235-0.086-0.405c-0.009-0.17-0.017-0.439-0.021-0.81s-0.007-0.775-0.007-1.216
		c0-0.34,0.002-0.699,0.007-1.079c0.005-0.381,0.008-0.766,0.008-1.155c0.009-0.63,0.014-1.232,0.014-1.808
		S29.083,47.258,29.083,46.857z M32.817,53.998c0.01-0.33,0.015-0.735,0.015-1.215c0-0.48,0-0.98,0-1.5v-3.78
		c0-0.09-0.017-0.15-0.05-0.181c-0.033-0.029-0.088-0.045-0.164-0.045c-0.123,0.011-0.266,0.018-0.428,0.022
		c-0.161,0.006-0.309,0.008-0.441,0.008c-0.219,0-0.425-0.002-0.62-0.008c-0.194-0.005-0.444-0.012-0.748-0.022
		c0,0.2-0.002,0.48-0.007,0.841c-0.005,0.359-0.017,0.76-0.036,1.199c-0.009,0.32-0.019,0.653-0.028,0.998s-0.017,0.689-0.021,1.035
		c-0.005,0.345-0.009,0.675-0.014,0.989c-0.005,0.315-0.008,0.593-0.008,0.833c0,0.12,0.003,0.228,0.008,0.322
		c0.005,0.096,0.007,0.183,0.007,0.263c0,0.11,0.019,0.18,0.057,0.21s0.096,0.045,0.172,0.045L32.817,53.998z M36.208,58.183
		c0-0.83,0-1.695,0-2.595c0-0.9-0.002-1.782-0.007-2.647s-0.012-1.695-0.021-2.49s-0.017-1.508-0.021-2.138
		s-0.012-1.152-0.021-1.567c-0.009-0.415-0.019-0.683-0.028-0.803c-0.01-0.21,0.048-0.375,0.171-0.495
		c0.124-0.119,0.262-0.185,0.413-0.194c0.257-0.021,0.442,0.03,0.557,0.149c0.113,0.12,0.171,0.271,0.171,0.45
		c0,0.12,0,0.253,0,0.397c0,0.146,0.004,0.308,0.014,0.487c0.01,0.391,0.017,0.772,0.021,1.147s0.007,0.788,0.007,1.238
		c0,0.17,0.003,0.32,0.008,0.449c0.004,0.131,0.007,0.296,0.007,0.495c0.133,0.011,0.249,0.016,0.35,0.016c0.1,0,0.225,0,0.377,0
		c0.161,0,0.328-0.003,0.499-0.008s0.347-0.013,0.527-0.022c0.218,0,0.382,0.063,0.491,0.188s0.164,0.263,0.164,0.412
		c0,0.15-0.06,0.288-0.178,0.413c-0.119,0.125-0.273,0.192-0.464,0.202c-0.218,0.01-0.463,0.016-0.733,0.016s-0.506,0-0.705,0
		h-0.343c0,0.3-0.002,0.604-0.007,0.914c-0.005,0.311-0.007,0.631-0.007,0.961c0,0.72,0.005,1.482,0.014,2.287
		c0.01,0.805,0.024,1.567,0.043,2.287c0,0.11,0,0.23,0,0.36s-0.01,0.245-0.028,0.345c-0.048,0.2-0.128,0.325-0.242,0.375
		s-0.242,0.075-0.385,0.075c-0.267,0-0.439-0.075-0.521-0.225C36.249,58.513,36.208,58.353,36.208,58.183z"/>
	<path fill="#FF746D" stroke="#FF746D" stroke-width="0.2" stroke-miterlimit="10" d="M49.803,55.093c0.446,0,0.67,0.175,0.67,0.525
		c0,0.2-0.038,0.345-0.114,0.435s-0.186,0.16-0.328,0.21c-0.057,0.021-0.138,0.032-0.242,0.037
		c-0.104,0.006-0.209,0.008-0.313,0.008c-0.123,0-0.256-0.005-0.398-0.015c-0.305,0-0.563-0.003-0.776-0.008
		c-0.214-0.005-0.474-0.008-0.777-0.008h-2.551c-0.541,0-1.073,0.003-1.596,0.008s-1.035,0.013-1.539,0.022
		c-0.038,0-0.104,0-0.199,0c-0.096,0-0.209,0.003-0.342,0.008c-0.134,0.005-0.273,0.007-0.421,0.007s-0.292,0-0.435,0
		c-0.161,0-0.299-0.055-0.413-0.164c-0.114-0.11-0.171-0.266-0.171-0.466c0-0.3,0.151-0.489,0.456-0.569
		c0.047-0.01,0.123-0.018,0.228-0.022s0.216-0.008,0.335-0.008s0.23,0,0.335,0s0.186,0,0.242,0c0.731,0,1.448-0.002,2.151-0.008
		c0.703-0.005,1.283-0.007,1.739-0.007c0.161,0,0.344,0.002,0.548,0.007c0.205,0.006,0.471,0.008,0.799,0.008
		c0.327,0,0.74,0,1.239,0S49.052,55.093,49.803,55.093z M42.108,47.683c-0.181,0-0.32-0.055-0.42-0.165
		c-0.1-0.109-0.159-0.245-0.179-0.405c-0.009-0.159,0.038-0.307,0.143-0.442c0.104-0.135,0.267-0.202,0.484-0.202h0.756
		c0.247,0,0.544-0.005,0.891-0.015s0.722-0.018,1.126-0.022c0.403-0.005,0.826-0.013,1.268-0.022
		c0.442-0.011,0.877-0.016,1.304-0.016c0.314,0,0.539,0.043,0.678,0.128c0.138,0.085,0.216,0.272,0.234,0.563
		c0.01,0.11,0.017,0.272,0.021,0.487s0.008,0.402,0.008,0.563c0,0.42-0.01,0.88-0.029,1.38c-0.019,0.5-0.042,0.995-0.071,1.485
		c-0.028,0.49-0.062,0.944-0.1,1.364c-0.038,0.421-0.076,0.756-0.113,1.006c-0.038,0.2-0.114,0.357-0.229,0.472
		c-0.114,0.115-0.285,0.163-0.513,0.143c-0.152-0.02-0.271-0.104-0.356-0.255c-0.086-0.149-0.119-0.314-0.1-0.495
		c0-0.06,0.005-0.159,0.014-0.3c0.01-0.14,0.021-0.313,0.036-0.518c0.014-0.205,0.028-0.433,0.043-0.683
		c0.014-0.25,0.03-0.515,0.05-0.795c-0.295,0.011-0.637,0.018-1.026,0.022c-0.39,0.006-0.783,0.011-1.183,0.016
		s-0.781,0.007-1.147,0.007c-0.365,0-0.677,0-0.933,0c-0.162,0-0.305-0.002-0.428-0.007c-0.124-0.005-0.209-0.008-0.257-0.008
		c-0.133-0.01-0.269-0.053-0.406-0.128c-0.138-0.074-0.206-0.222-0.206-0.442c0-0.189,0.063-0.345,0.192-0.465
		c0.128-0.12,0.292-0.18,0.491-0.18c0.076,0,0.219,0,0.428,0s0.456,0,0.741,0c0.284,0,0.596-0.003,0.933-0.008
		c0.338-0.005,0.678-0.008,1.02-0.008s0.672-0.002,0.99-0.007s0.601-0.008,0.848-0.008c0.01-0.229,0.017-0.45,0.021-0.66
		s0.007-0.415,0.007-0.615c0-0.14-0.002-0.257-0.007-0.352c-0.005-0.096-0.007-0.198-0.007-0.308c0-0.101-0.053-0.15-0.157-0.15
		c-0.228,0-0.556,0.003-0.983,0.008c-0.427,0.005-0.881,0.01-1.36,0.015c-0.48,0.005-0.948,0.01-1.404,0.015
		C42.764,47.681,42.393,47.683,42.108,47.683z"/>
</g>
<g>
	<path fill="#FF746D" d="M18.458,8.846c-0.037,0-0.074,0-0.111-0.002c-1.051-0.037-2.004-0.584-2.686-1.541
		c-0.417-0.584-0.569-1.412-0.407-2.215c0.18-0.895,0.709-1.654,1.49-2.138c0,0,0,0,0,0c1.634-1.012,3.217-0.924,4.234,0.239
		c1.048,1.199,1.109,3.216,0.132,4.404C20.47,8.373,19.462,8.846,18.458,8.846z M17.535,4.226c-0.573,0.354-0.752,0.878-0.809,1.158
		c-0.08,0.398-0.02,0.8,0.158,1.049c0.411,0.577,0.935,0.892,1.516,0.913c0.584,0.024,1.185-0.256,1.553-0.704
		c0.521-0.633,0.471-1.808-0.103-2.464C19.202,3.435,18.232,3.793,17.535,4.226L17.535,4.226z"/>
	<path fill="#FF746D" d="M27.508,36.75c-0.317,0-0.612-0.202-0.714-0.521l-6.736-20.935c-0.491-1.526-0.999-3.104-1.16-4.774
		c-0.04-0.412,0.263-0.779,0.675-0.818c0.41-0.043,0.779,0.263,0.818,0.675c0.145,1.508,0.627,3.008,1.094,4.458l6.736,20.936
		c0.127,0.394-0.09,0.816-0.484,0.943C27.661,36.738,27.584,36.75,27.508,36.75z"/>
	<path fill="#FF746D" d="M24.941,27.122c-0.228,0-0.453-0.104-0.601-0.3c-0.249-0.332-0.181-0.802,0.15-1.05
		c2.654-1.99,7.487-3.853,10.781-3.73c-0.125-2.833-0.533-5.434-0.928-7.956c-0.394-2.516-0.8-5.108-0.937-7.956
		c-1.409,0.525-2.845,1.096-4.35,1.694c-3.047,1.21-6.198,2.462-9.2,3.345c-0.393,0.117-0.814-0.111-0.931-0.508
		s0.111-0.814,0.508-0.931c2.935-0.863,6.053-2.101,9.068-3.299c1.78-0.707,3.621-1.438,5.363-2.065
		c0.228-0.082,0.479-0.048,0.678,0.087c0.199,0.137,0.32,0.36,0.326,0.602c0.073,3.165,0.522,6.03,0.956,8.801
		c0.442,2.821,0.899,5.737,0.975,9.003c0.005,0.225-0.091,0.439-0.261,0.586c-0.171,0.146-0.398,0.208-0.619,0.17
		c-2.562-0.455-7.582,1.149-10.528,3.36C25.255,27.073,25.098,27.122,24.941,27.122z"/>
	<path fill="#FF746D" d="M31.199,30.403c-0.152,0-0.303-0.046-0.432-0.137c-0.227-0.16-0.347-0.433-0.312-0.708
		c0.052-0.409-0.175-1.521-0.375-2.502c-0.178-0.873-0.362-1.774-0.438-2.529c-0.042-0.412,0.258-0.78,0.67-0.822
		c0.413-0.044,0.78,0.258,0.822,0.67c0.069,0.68,0.245,1.544,0.416,2.38c0.127,0.624,0.246,1.206,0.322,1.713
		c9.358-4.759,15.464-7.979,18.226-9.609c-1.445-0.167-3.511-0.31-5.066-0.417c-0.887-0.061-1.732-0.12-2.447-0.178
		c-0.223-0.018-0.426-0.135-0.554-0.318s-0.167-0.415-0.107-0.63c0.905-3.25,1.874-5.365,3.484-8.144
		c-1.56,0.354-3.07,0.664-4.544,0.965c-1.996,0.409-4.061,0.832-6.21,1.359c-0.403,0.098-0.809-0.147-0.907-0.55
		s0.147-0.809,0.55-0.907c2.178-0.534,4.257-0.96,6.267-1.372c1.997-0.409,4.062-0.833,6.212-1.36
		c0.295-0.073,0.603,0.04,0.783,0.284c0.179,0.244,0.194,0.573,0.038,0.832c-1.928,3.19-3.021,5.278-3.972,8.416
		c0.477,0.035,0.987,0.07,1.512,0.106c3.84,0.265,6.418,0.468,7.245,0.859c0.234,0.111,0.394,0.334,0.424,0.591
		c0.03,0.257-0.075,0.511-0.277,0.672c-1.829,1.461-12.854,7.122-20.989,11.252C31.432,30.376,31.315,30.403,31.199,30.403z"/>
</g>
</svg>
