<?xml version="1.0" encoding="utf-8"?>
<!-- Generator: Adobe Illustrator 19.1.0, SVG Export Plug-In . SVG Version: 6.00 Build 0)  -->
<svg version="1.1" id="아이콘" xmlns="http://www.w3.org/2000/svg" xmlns:xlink="http://www.w3.org/1999/xlink" x="0px" y="0px"
	 viewBox="0 0 68 60" enable-background="new 0 0 68 60" xml:space="preserve">
<g>
	<path fill="#FF746D" stroke="#FF746D" stroke-width="0.2" stroke-miterlimit="10" d="M31.791,49.437
		c-0.019,0.2-0.081,0.346-0.185,0.436c-0.105,0.09-0.219,0.14-0.343,0.149c-0.513,0.03-0.94,0.053-1.282,0.067
		c-0.342,0.016-0.66,0.022-0.955,0.022v1.665c0.514,0,1.026,0,1.539,0c0.514,0,1.055-0.005,1.625-0.015c0.076,0,0.159,0,0.249,0
		s0.174-0.005,0.25-0.015c0.095,0,0.185-0.005,0.271-0.016c0.18,0,0.325,0.053,0.435,0.158c0.109,0.104,0.164,0.257,0.164,0.457
		c0,0.21-0.046,0.353-0.136,0.428c-0.091,0.075-0.197,0.127-0.32,0.157c-0.104,0.03-0.233,0.045-0.385,0.045h-0.257h-3.52
		c-0.77,0-1.534,0.003-2.295,0.008c-0.76,0.005-1.515,0.003-2.266-0.008c-0.047,0-0.111,0.003-0.192,0.008
		c-0.08,0.005-0.163,0.008-0.249,0.008s-0.164,0-0.235,0s-0.126,0-0.164,0c-0.161-0.021-0.294-0.083-0.398-0.188
		c-0.104-0.105-0.157-0.258-0.157-0.458c0-0.17,0.063-0.3,0.186-0.39s0.261-0.146,0.413-0.165l4.189-0.03v-0.72v-0.931
		c-0.219,0-0.456,0-0.712,0c-0.257,0-0.556,0.006-0.898,0.016c-0.437,0-0.731-0.072-0.883-0.218
		c-0.152-0.145-0.229-0.422-0.229-0.832c0-0.261,0.002-0.503,0.007-0.728c0.005-0.226,0.008-0.478,0.008-0.758v-1.44
		c0-0.249,0.078-0.412,0.235-0.487c0.156-0.075,0.329-0.112,0.52-0.112c0.028,0,0.055-0.002,0.078-0.008
		c0.024-0.005,0.05-0.002,0.079,0.008h0.798c0.256,0,0.539,0.003,0.848,0.008s0.615,0.007,0.919,0.007c0.247,0,0.492,0,0.734,0
		s0.47-0.002,0.684-0.007s0.404-0.01,0.57-0.016c0.166-0.005,0.297-0.017,0.392-0.037c0.247-0.04,0.451,0.015,0.613,0.165
		c0.161,0.149,0.251,0.345,0.271,0.585c0,0.18,0,0.412,0,0.697s-0.003,0.58-0.007,0.885c-0.006,0.306-0.008,0.601-0.008,0.886
		c0,0.284,0,0.518,0,0.697V49.437z M25.364,55.513c-0.123,0.01-0.226-0.002-0.307-0.037c-0.08-0.034-0.146-0.081-0.199-0.141
		c-0.052-0.06-0.09-0.123-0.114-0.192c-0.023-0.069-0.035-0.134-0.035-0.192c-0.01-0.198,0.038-0.356,0.143-0.475
		s0.252-0.178,0.441-0.178c0.237,0,0.561,0,0.97,0c0.408,0,0.845,0,1.311,0c0.465,0,0.931-0.003,1.396-0.008
		s0.879-0.013,1.239-0.022c0.114,0,0.247-0.002,0.399-0.008c0.152-0.005,0.275-0.007,0.37-0.007c0.076,0,0.169,0.007,0.278,0.022
		c0.109,0.015,0.211,0.052,0.307,0.11c0.095,0.06,0.176,0.146,0.242,0.26s0.1,0.265,0.1,0.452c-0.01,0.188-0.015,0.408-0.015,0.663
		s0,0.512,0,0.772c0,0.42-0.002,0.779-0.007,1.079c-0.005,0.301-0.017,0.605-0.035,0.915c-0.029,0.41-0.238,0.62-0.627,0.631
		c-0.181,0.02-0.331-0.033-0.449-0.158c-0.119-0.125-0.184-0.313-0.192-0.563c0.009-0.27,0.014-0.524,0.014-0.765s0-0.525,0-0.855
		c0-0.229,0.003-0.435,0.008-0.614c0.005-0.181-0.003-0.37-0.021-0.57c-0.01-0.09-0.036-0.143-0.078-0.157
		c-0.043-0.016-0.103-0.022-0.179-0.022c-0.275,0.01-0.589,0.015-0.94,0.015s-0.688,0-1.012,0c-0.522,0-1.05,0.003-1.582,0.008
		S25.782,55.493,25.364,55.513z M26.447,48.942c0.313,0.011,0.599,0.018,0.855,0.022c0.256,0.006,0.498,0.008,0.727,0.008
		c0.189,0,0.37,0,0.541,0c0.172,0,0.352-0.005,0.542-0.015c0.189-0.01,0.398-0.021,0.627-0.03c0.228-0.01,0.494-0.024,0.798-0.045
		v-1.995c0-0.03-0.002-0.06-0.007-0.09s-0.041-0.045-0.107-0.045c-0.161,0-0.354,0.002-0.577,0.007
		c-0.223,0.006-0.448,0.008-0.677,0.008c-0.522,0.01-1.033,0.018-1.531,0.022c-0.499,0.005-0.929,0.013-1.29,0.022
		c-0.01,0.351-0.015,0.668-0.015,0.953c0,0.284,0,0.627,0,1.027c0,0.05,0.005,0.088,0.015,0.112
		C26.357,48.931,26.391,48.942,26.447,48.942z"/>
	<path fill="#FF746D" stroke="#FF746D" stroke-width="0.2" stroke-miterlimit="10" d="M35.282,55.317
		c-0.057,0.061-0.124,0.113-0.199,0.158c-0.076,0.045-0.157,0.077-0.242,0.097c-0.086,0.021-0.172,0.018-0.257-0.007
		c-0.086-0.025-0.162-0.077-0.229-0.157c-0.133-0.16-0.176-0.313-0.128-0.458c0.048-0.145,0.114-0.272,0.199-0.383
		c0.399-0.479,0.774-0.949,1.126-1.409s0.675-0.928,0.969-1.403c0.295-0.475,0.563-0.96,0.806-1.455
		c0.242-0.494,0.463-1.021,0.662-1.582c0.01-0.02,0.017-0.063,0.021-0.128c0.005-0.064-0.035-0.092-0.121-0.082
		c-0.161,0.01-0.358,0.022-0.591,0.037c-0.233,0.016-0.478,0.025-0.734,0.03c-0.256,0.005-0.513,0.008-0.77,0.008
		c-0.256,0-0.489-0.005-0.698-0.016c-0.171-0.01-0.337-0.05-0.499-0.12c-0.161-0.069-0.242-0.225-0.242-0.465
		c0-0.199,0.069-0.347,0.207-0.442c0.138-0.095,0.282-0.143,0.435-0.143c0.475,0,0.931-0.005,1.368-0.015
		c0.437-0.01,0.917-0.025,1.439-0.045c0.037,0,0.102-0.003,0.192-0.008c0.09-0.005,0.183-0.01,0.277-0.015s0.186-0.01,0.271-0.016
		c0.086-0.005,0.143-0.007,0.172-0.007c0.322,0,0.539,0.064,0.648,0.194c0.108,0.131,0.163,0.296,0.163,0.495
		c0,0.061-0.005,0.133-0.014,0.218c-0.01,0.085-0.028,0.168-0.058,0.247c-0.275,0.921-0.65,1.825-1.125,2.716
		c0.151,0.359,0.294,0.675,0.427,0.944c0.133,0.271,0.271,0.53,0.414,0.78c0.142,0.25,0.289,0.505,0.441,0.765
		c0.151,0.261,0.327,0.561,0.527,0.9c0.104,0.18,0.146,0.355,0.128,0.525s-0.081,0.284-0.186,0.345
		c-0.133,0.08-0.272,0.104-0.42,0.075c-0.147-0.03-0.292-0.136-0.435-0.315c-0.076-0.1-0.179-0.242-0.307-0.428
		c-0.128-0.185-0.269-0.399-0.42-0.645c-0.152-0.245-0.312-0.508-0.478-0.788c-0.166-0.279-0.325-0.564-0.478-0.854
		c-0.313,0.479-0.658,0.958-1.033,1.433S35.729,54.848,35.282,55.317z M35.695,46.183c-0.181-0.05-0.325-0.138-0.435-0.263
		s-0.145-0.292-0.106-0.502c0.028-0.16,0.118-0.271,0.271-0.33c0.151-0.061,0.304-0.075,0.456-0.045
		c0.209,0.04,0.385,0.075,0.527,0.104c0.143,0.03,0.285,0.056,0.427,0.075c0.143,0.021,0.302,0.032,0.478,0.037
		c0.176,0.006,0.406,0.008,0.691,0.008c0.275,0,0.458,0.048,0.549,0.143c0.09,0.096,0.145,0.228,0.164,0.397
		c0.009,0.21-0.058,0.357-0.2,0.442s-0.285,0.133-0.427,0.143c-0.276,0.021-0.521,0.027-0.734,0.022s-0.411-0.015-0.592-0.03
		c-0.18-0.015-0.354-0.039-0.52-0.074S35.895,46.232,35.695,46.183z M41.467,58.168c0-0.83,0-1.692,0-2.588
		c0-0.895-0.003-1.774-0.007-2.64c-0.005-0.865-0.01-1.692-0.015-2.482s-0.01-1.498-0.015-2.123s-0.009-1.142-0.014-1.552
		s-0.013-0.676-0.021-0.796c-0.01-0.21,0.045-0.38,0.164-0.51c0.118-0.13,0.254-0.205,0.406-0.225
		c0.246-0.021,0.427,0.037,0.541,0.173s0.171,0.293,0.171,0.474c0,0.12,0,0.254,0,0.398c0,0.146,0.005,0.309,0.015,0.489
		c0.019,0.541,0.03,1.173,0.035,1.895c0.005,0.723,0.008,1.435,0.008,2.136c0.266,0,0.486,0,0.662,0s0.325,0,0.449,0
		c0.123,0,0.234-0.002,0.335-0.007c0.1-0.005,0.201-0.008,0.306-0.008c0.229-0.01,0.395,0.049,0.499,0.178
		c0.104,0.128,0.157,0.267,0.157,0.415s-0.058,0.284-0.172,0.407c-0.113,0.124-0.271,0.19-0.47,0.2
		c-0.219,0.01-0.476,0.015-0.77,0.015c-0.295,0-0.632,0-1.012,0v1.575c0,0.6,0.002,1.205,0.007,1.815
		c0.005,0.609,0.012,1.165,0.021,1.664c0,0.051,0,0.138,0,0.263s0,0.255,0,0.391c0,0.135,0,0.265,0,0.39s-0.005,0.218-0.014,0.277
		c-0.02,0.2-0.089,0.332-0.207,0.397c-0.119,0.065-0.254,0.098-0.406,0.098c-0.266,0-0.441-0.077-0.527-0.232
		C41.51,58.5,41.467,58.338,41.467,58.168z"/>
</g>
<g>
	<path fill="#FF746D" d="M34.188,10.858c-7.62,0-15.301-0.182-15.741-0.542c-0.208-0.17-0.697-0.57-0.729-3.307
		c-0.016-1.354,0.058-3.713,0.73-4.29l0.001-0.001c0.831-0.71,30.199-0.58,31.112,0.138c0.207,0.163,0.693,0.544,0.72,3.349
		c0.016,1.592-0.1,3.601-0.74,4.124C49.111,10.682,41.679,10.858,34.188,10.858z M19.41,9.086c2.795,0.387,26.102,0.39,29.156,0.006
		c0.276-0.957,0.299-4.062,0.036-4.991C45.646,3.721,22.51,3.598,19.447,3.947C19.181,4.925,19.104,8.151,19.41,9.086z"/>
	<path fill="#FF746D" d="M34.188,36.729c-7.62,0-15.301-0.182-15.741-0.542c-0.209-0.171-0.7-0.574-0.73-3.327
		c-0.014-1.348,0.062-3.696,0.731-4.269c0,0,0,0,0,0c0.832-0.711,30.2-0.583,31.113,0.137c0.208,0.164,0.693,0.546,0.72,3.359
		c0.021,2.31-0.227,3.694-0.74,4.113C49.111,36.554,41.679,36.729,34.188,36.729z M19.41,34.958
		c2.795,0.387,26.102,0.39,29.156,0.006c0.276-0.957,0.299-4.062,0.036-4.991c-2.956-0.38-26.093-0.5-29.155-0.154
		C19.18,30.797,19.104,34.023,19.41,34.958z"/>
	<path fill="#FF746D" d="M34.171,23.381c-7.606,0-15.268-0.171-15.707-0.509c-0.215-0.167-0.72-0.556-0.747-3.199
		c-0.013-1.276,0.066-3.499,0.748-4.049l0.001-0.001c0.833-0.668,30.167-0.544,31.078,0.13c0.212,0.157,0.711,0.526,0.737,3.216
		c0.021,2.194-0.234,3.511-0.757,3.913C49.093,23.215,41.659,23.381,34.171,23.381z M19.401,21.622
		c2.806,0.372,26.109,0.373,29.173,0.004c0.257-0.895,0.28-3.74,0.036-4.61c-2.966-0.364-26.098-0.478-29.17-0.146
		C19.19,17.788,19.116,20.747,19.401,21.622z"/>
</g>
</svg>
