<?xml version="1.0" encoding="utf-8"?>
<!-- Generator: Adobe Illustrator 19.1.0, SVG Export Plug-In . SVG Version: 6.00 Build 0)  -->
<svg version="1.1" id="아이콘" xmlns="http://www.w3.org/2000/svg" xmlns:xlink="http://www.w3.org/1999/xlink" x="0px" y="0px"
	 viewBox="0 0 68 60" enable-background="new 0 0 68 60" xml:space="preserve">
<g>
	<path fill="#FF746D" stroke="#FF746D" stroke-width="0.2" stroke-miterlimit="10" d="M3.405,57.178
		c0.019-1.13,0.031-2.285,0.036-3.465s0.007-2.285,0.007-3.315c0-0.75-0.002-1.444-0.007-2.085c-0.005-0.64-0.012-1.225-0.021-1.755
		v0.03c-0.019-0.12-0.009-0.23,0.029-0.33c0.028-0.08,0.087-0.157,0.178-0.232c0.09-0.075,0.23-0.122,0.42-0.143
		c0.379,0,0.819,0.015,1.318,0.045s0.985,0.141,1.46,0.33c0.608,0.25,1.09,0.665,1.447,1.245c0.356,0.58,0.548,1.265,0.577,2.055
		c0.028,0.65-0.06,1.232-0.264,1.748c-0.205,0.515-0.492,0.955-0.862,1.319c-0.371,0.365-0.813,0.65-1.325,0.855
		c-0.513,0.205-1.064,0.322-1.653,0.353v3.27c0.038,0.23-0.015,0.42-0.157,0.57c-0.142,0.149-0.309,0.225-0.499,0.225
		c-0.095,0-0.192-0.018-0.292-0.052c-0.1-0.035-0.188-0.104-0.264-0.203C3.448,57.522,3.405,57.367,3.405,57.178z M4.745,52.572
		c0.399-0.029,0.771-0.119,1.118-0.27s0.646-0.353,0.898-0.607c0.251-0.255,0.446-0.555,0.584-0.9
		c0.137-0.345,0.202-0.722,0.192-1.132c-0.02-0.58-0.143-1.058-0.371-1.433s-0.532-0.647-0.912-0.817
		c-0.085-0.04-0.192-0.075-0.321-0.105c-0.128-0.03-0.261-0.055-0.399-0.075c-0.138-0.02-0.275-0.037-0.413-0.052
		c-0.138-0.016-0.264-0.028-0.377-0.038V52.572z"/>
	<path fill="#FF746D" stroke="#FF746D" stroke-width="0.2" stroke-miterlimit="10" d="M10.26,45.965
		c0.171-0.045,0.371-0.062,0.598-0.052c0.789,0.04,1.487,0.183,2.095,0.427c0.607,0.245,1.118,0.605,1.532,1.08
		c0.413,0.476,0.724,1.07,0.933,1.785s0.309,1.558,0.299,2.527c-0.019,1.94-0.416,3.423-1.19,4.448
		c-0.774,1.024-1.883,1.547-3.327,1.567c-0.323,0.01-0.57-0.03-0.741-0.12c-0.171-0.09-0.271-0.315-0.299-0.675
		c-0.019-0.41-0.033-0.923-0.042-1.538c-0.01-0.615-0.019-1.217-0.028-1.808c0-0.29,0-0.574,0-0.854s-0.005-0.565-0.015-0.855
		l-0.042-2.16c-0.01-0.47-0.021-0.932-0.036-1.387s-0.021-0.923-0.021-1.403v-0.479C9.993,46.178,10.089,46.01,10.26,45.965z
		 M11.328,51.846c0.009,0.769,0.019,1.55,0.028,2.344c0.009,0.793,0.023,1.574,0.042,2.344c0.048,0.01,0.088,0.015,0.122,0.015
		c0.033,0,0.068,0,0.106,0c0.418,0,0.8-0.132,1.147-0.396c0.347-0.265,0.644-0.622,0.891-1.071c0.247-0.449,0.439-0.968,0.577-1.558
		c0.137-0.589,0.207-1.208,0.207-1.857c0-0.648-0.074-1.252-0.221-1.812c-0.147-0.56-0.358-1.043-0.634-1.453
		c-0.276-0.409-0.613-0.724-1.012-0.943s-0.846-0.319-1.34-0.299c0,0.519,0.005,1.033,0.015,1.542
		c0.009,0.509,0.023,1.023,0.042,1.543c0.009,0.26,0.014,0.524,0.014,0.794S11.319,51.576,11.328,51.846z"/>
	<path fill="#FF746D" stroke="#FF746D" stroke-width="0.2" stroke-miterlimit="10" d="M17.841,57.777
		c-0.162,0-0.309-0.052-0.442-0.157c-0.133-0.104-0.19-0.271-0.171-0.501v-4.226c-0.02-0.858-0.038-1.718-0.057-2.576
		c-0.019-0.859-0.038-1.718-0.057-2.577c0-0.079-0.002-0.229-0.007-0.449c-0.005-0.22-0.012-0.439-0.021-0.659
		c0.009-0.2,0.078-0.372,0.207-0.517c0.128-0.146,0.321-0.218,0.577-0.218h2.494c0.209,0,0.425,0,0.648,0s0.406,0.006,0.549,0.016
		c0.171,0.01,0.315,0.054,0.435,0.133c0.119,0.079,0.178,0.232,0.178,0.459c0,0.139-0.021,0.247-0.064,0.326
		c-0.042,0.079-0.098,0.139-0.164,0.178c-0.067,0.039-0.143,0.062-0.228,0.066c-0.086,0.005-0.171,0.008-0.257,0.008h-0.998
		c-0.323,0-0.625,0.002-0.905,0.007c-0.28,0.006-0.568,0.008-0.862,0.008c-0.124,0-0.197,0.035-0.221,0.105
		c-0.024,0.069-0.036,0.145-0.036,0.225c0,0.29,0.002,0.563,0.007,0.817c0.004,0.255,0.009,0.508,0.014,0.758
		s0.012,0.505,0.021,0.765c0.009,0.261,0.014,0.535,0.014,0.825c0.741,0,1.37,0,1.888,0c0.518,0,0.886,0.01,1.104,0.03
		c0.199,0.01,0.37,0.058,0.513,0.143s0.214,0.257,0.214,0.518c0,0.229-0.064,0.385-0.192,0.465s-0.288,0.109-0.478,0.09
		c-0.057-0.01-0.147-0.018-0.271-0.022c-0.124-0.005-0.266-0.01-0.428-0.016c-0.162-0.005-0.34-0.007-0.534-0.007
		c-0.195,0-0.392,0-0.591,0c-0.228,0-0.449-0.003-0.663-0.008s-0.397,0.003-0.549,0.022c0,0.811,0.005,1.638,0.014,2.482
		c0.01,0.846,0.015,1.673,0.015,2.482c0,0.181-0.005,0.325-0.015,0.436c-0.009,0.109-0.052,0.215-0.128,0.314
		C18.254,57.692,18.068,57.777,17.841,57.777z"/>
	<path fill="#FF746D" stroke="#FF746D" stroke-width="0.2" stroke-miterlimit="10" d="M25.008,53.878
		c0.038,0.03,0.095,0.045,0.171,0.045c0.37,0,0.793-0.022,1.268-0.067s0.921-0.117,1.339-0.218c0.171-0.04,0.321-0.02,0.449,0.06
		c0.128,0.081,0.211,0.2,0.249,0.358c0.019,0.109,0.019,0.205,0,0.289s-0.055,0.158-0.107,0.223s-0.109,0.116-0.171,0.155
		c-0.062,0.04-0.126,0.064-0.192,0.074c-0.636,0.128-1.226,0.218-1.767,0.267c-0.542,0.05-1.026,0.069-1.453,0.06
		c-0.209,0-0.387-0.02-0.535-0.06c-0.147-0.039-0.266-0.104-0.356-0.192c-0.09-0.089-0.157-0.21-0.2-0.363
		c-0.042-0.153-0.064-0.354-0.064-0.6c0-0.141,0.002-0.418,0.007-0.833s0.012-0.893,0.021-1.433c0-0.42,0.002-0.85,0.007-1.29
		c0.004-0.439,0.009-0.859,0.014-1.26c0.005-0.399,0.009-0.755,0.014-1.065c0.005-0.31,0.007-0.54,0.007-0.689v-0.75
		c0-0.2,0.066-0.365,0.199-0.495c0.133-0.13,0.29-0.195,0.47-0.195c0.437,0,0.656,0.221,0.656,0.66
		c-0.019,0.34-0.031,0.748-0.036,1.223c-0.005,0.475-0.012,0.978-0.021,1.508c-0.01,0.53-0.017,1.067-0.021,1.612
		s-0.007,1.058-0.007,1.537v1.245C24.951,53.783,24.97,53.848,25.008,53.878z M31.677,57.493v-6.15h-1.454
		c0.009,0.41,0.014,0.82,0.014,1.229c0,0.41,0,0.82,0,1.23c0,0.76,0.002,1.503,0.007,2.228c0.004,0.726,0.007,1.372,0.007,1.942
		c-0.019,0.2-0.098,0.348-0.235,0.442c-0.138,0.095-0.278,0.143-0.42,0.143c-0.162,0-0.304-0.058-0.428-0.173
		c-0.124-0.114-0.185-0.257-0.185-0.427c0.009-0.48,0.014-0.971,0.014-1.471c0-0.499,0-0.989,0-1.47v-2.024
		c0-0.421-0.002-0.841-0.007-1.261s-0.007-0.84-0.007-1.26v-0.84c0-0.23,0-0.436,0-0.615s-0.002-0.353-0.007-0.518
		s-0.007-0.327-0.007-0.487s0-0.34,0-0.54s0-0.41,0-0.63s0.004-0.485,0.014-0.795c0-0.21,0.062-0.375,0.185-0.495
		s0.266-0.18,0.428-0.18c0.143,0,0.285,0.047,0.427,0.143c0.143,0.095,0.219,0.272,0.228,0.532c0,0.18-0.002,0.407-0.007,0.683
		c-0.005,0.275-0.01,0.58-0.015,0.915s-0.007,0.695-0.007,1.08s0,0.772,0,1.162v0.225h0.627c0.143,0,0.283,0,0.42,0
		s0.273-0.005,0.406-0.015c0-0.939-0.002-1.787-0.007-2.542s-0.007-1.308-0.007-1.658c0-0.199,0.05-0.369,0.15-0.51
		c0.1-0.14,0.235-0.215,0.406-0.225c0.247-0.01,0.43,0.042,0.548,0.157s0.178,0.272,0.178,0.473c0,0.33-0.002,0.555-0.007,0.675
		s-0.007,0.215-0.007,0.285v1.665c0,0.689,0,1.433,0,2.228s0,1.6,0,2.415c0,0.814,0.002,1.612,0.007,2.393
		c0.005,0.779,0.012,1.489,0.021,2.13c0,0.029,0.002,0.06,0.007,0.09c0.004,0.03,0.007,0.064,0.007,0.104
		c0.009,0.08,0.012,0.173,0.007,0.278c-0.005,0.104-0.021,0.197-0.05,0.277c-0.067,0.17-0.152,0.29-0.257,0.359
		c-0.104,0.07-0.228,0.105-0.37,0.105c-0.162,0-0.307-0.058-0.435-0.173c-0.128-0.115-0.192-0.263-0.192-0.442V57.493z"/>
	<path fill="#FF746D" stroke="#FF746D" stroke-width="0.2" stroke-miterlimit="10" d="M34.57,54.447c0-0.319,0-0.646,0-0.982
		c0-0.335,0-0.657,0-0.967c0-0.311,0-0.601,0-0.87c0-0.271,0-0.505,0-0.705c-0.019-0.56,0.233-0.84,0.755-0.84
		c0.19,0,0.411,0,0.663,0c0.251,0,0.503,0,0.755,0c0.251,0,0.496,0,0.734,0c0.237,0,0.437-0.005,0.599-0.016v-0.569
		c0-0.29,0.002-0.605,0.007-0.945s0.007-0.705,0.007-1.095c0-0.08-0.017-0.118-0.05-0.112c-0.034,0.005-0.074,0.007-0.121,0.007
		c-0.114,0.011-0.259,0.018-0.435,0.022c-0.176,0.006-0.358,0.011-0.548,0.016c-0.19,0.005-0.378,0.007-0.563,0.007
		s-0.349,0-0.492,0c-0.124,0-0.256,0.003-0.399,0.008s-0.252,0.003-0.328-0.008c-0.19-0.02-0.328-0.091-0.413-0.215
		c-0.086-0.123-0.128-0.254-0.128-0.393c0-0.168,0.059-0.311,0.178-0.43c0.119-0.118,0.282-0.178,0.492-0.178
		c0.152,0,0.296,0.003,0.435,0.008c0.137,0.005,0.259,0.007,0.363,0.007c0.427,0,0.774-0.002,1.04-0.007s0.485-0.01,0.656-0.016
		c0.171-0.005,0.306-0.01,0.406-0.015c0.1-0.005,0.202-0.013,0.307-0.022c0.18-0.01,0.328-0.005,0.442,0.015
		c0.114,0.021,0.202,0.065,0.264,0.135c0.062,0.07,0.104,0.162,0.128,0.277c0.024,0.114,0.041,0.252,0.05,0.411v3.499
		c0.009,0.24-0.017,0.432-0.078,0.576c-0.062,0.145-0.259,0.227-0.591,0.247c-0.114,0.01-0.269,0.018-0.463,0.022
		s-0.416,0.01-0.663,0.015c-0.247,0.006-0.515,0.011-0.805,0.016c-0.29,0.005-0.586,0.007-0.891,0.007v2.73
		c0,0.05,0.007,0.095,0.021,0.135s0.059,0.061,0.135,0.061c0.665,0,1.226-0.016,1.682-0.046c0.408-0.02,0.765-0.05,1.069-0.09
		c0.304-0.04,0.627-0.085,0.969-0.135c0.247-0.04,0.442-0.01,0.584,0.09c0.143,0.101,0.214,0.245,0.214,0.436
		c0,0.109-0.036,0.217-0.107,0.322c-0.071,0.104-0.178,0.188-0.321,0.247c-0.028,0.021-0.085,0.038-0.171,0.053
		s-0.188,0.032-0.307,0.053c-0.119,0.02-0.247,0.04-0.385,0.06c-0.138,0.021-0.278,0.035-0.42,0.045
		c-0.352,0.021-0.661,0.04-0.926,0.061c-0.266,0.02-0.501,0.035-0.706,0.045c-0.205,0.01-0.39,0.018-0.556,0.022
		c-0.167,0.005-0.321,0.008-0.463,0.008c-0.104,0-0.228,0-0.37,0c-0.143,0-0.266-0.005-0.371-0.016
		c-0.209-0.01-0.373-0.04-0.492-0.09c-0.119-0.05-0.207-0.117-0.264-0.202s-0.093-0.188-0.107-0.308S34.57,54.588,34.57,54.447z
		 M40.398,48.013c0.085,0,0.173,0,0.263,0s0.195,0,0.314,0c0.119,0,0.261,0,0.427,0c0.166,0,0.373,0,0.62,0v-2.1
		c0-0.21,0.057-0.37,0.171-0.48c0.114-0.109,0.266-0.165,0.456-0.165c0.133,0,0.261,0.065,0.385,0.195
		c0.123,0.13,0.19,0.28,0.199,0.45c-0.009,0.189-0.014,0.444-0.014,0.765s0,0.655,0,1.005c0,0.4,0,0.83,0,1.29
		s0.005,0.945,0.014,1.455c0.009,0.81,0.017,1.646,0.021,2.505c0.005,0.86,0.007,1.68,0.007,2.46c0,0.25,0,0.503,0,0.758
		s-0.002,0.505-0.007,0.75s-0.01,0.478-0.014,0.697c-0.005,0.22-0.007,0.42-0.007,0.6c-0.009,0.2-0.076,0.353-0.199,0.458
		c-0.124,0.104-0.252,0.157-0.385,0.157c-0.19,0-0.342-0.064-0.456-0.194c-0.114-0.131-0.171-0.271-0.171-0.421
		c0-0.18,0.002-0.399,0.007-0.659c0.005-0.261,0.009-0.54,0.014-0.841c0.005-0.3,0.007-0.612,0.007-0.938c0-0.324,0-0.652,0-0.982
		c0-0.279-0.002-0.564-0.007-0.854s-0.007-0.585-0.007-0.885c-0.276,0-0.568,0-0.876,0c-0.309,0-0.563,0.01-0.762,0.029
		c-0.171,0.021-0.309-0.029-0.414-0.149s-0.157-0.28-0.157-0.48c0-0.199,0.052-0.345,0.157-0.435s0.237-0.14,0.399-0.15
		c0.219-0.02,0.48-0.03,0.784-0.03c0.304,0,0.593,0,0.869,0c0-0.51-0.002-0.97-0.007-1.38c-0.005-0.409-0.007-0.81-0.007-1.199
		c-0.114,0-0.264,0.002-0.449,0.007c-0.185,0.006-0.382,0.008-0.591,0.008c-0.143,0-0.271,0-0.385,0
		c-0.114,0-0.195-0.005-0.242-0.015c-0.162-0.021-0.29-0.083-0.385-0.188c-0.095-0.105-0.143-0.253-0.143-0.443
		c0-0.199,0.052-0.35,0.157-0.449C40.089,48.062,40.227,48.013,40.398,48.013z"/>
	<path fill="#FF746D" stroke="#FF746D" stroke-width="0.2" stroke-miterlimit="10" d="M46.055,46.288
		c-0.019,0.319-0.026,0.614-0.021,0.885c0.005,0.27,0.007,0.585,0.007,0.945c0.428,0,0.831-0.005,1.211-0.016
		c0.38-0.01,0.788-0.015,1.226-0.015c0.009-0.35,0.019-0.673,0.028-0.968c0.009-0.295,0.014-0.518,0.014-0.667v-0.181
		c0-0.069,0.007-0.149,0.021-0.239c0.014-0.091,0.047-0.17,0.1-0.24s0.124-0.125,0.214-0.165s0.211-0.055,0.363-0.045
		c0.18,0.01,0.311,0.08,0.392,0.21c0.081,0.13,0.121,0.28,0.121,0.45c0,0.069,0,0.228,0,0.472c0,0.245,0,0.538,0,0.878
		s-0.002,0.711-0.007,1.112s-0.009,0.79-0.014,1.166c-0.005,0.377-0.014,0.721-0.028,1.031c-0.015,0.312-0.026,0.547-0.036,0.707
		c-0.038,0.352-0.145,0.585-0.321,0.7s-0.473,0.173-0.891,0.173H45.67c-0.085,0-0.176-0.012-0.271-0.037
		c-0.095-0.025-0.186-0.067-0.271-0.128s-0.157-0.141-0.213-0.241c-0.057-0.101-0.086-0.221-0.086-0.361
		c0-0.331-0.002-0.685-0.007-1.061c-0.005-0.377-0.01-0.745-0.014-1.106c-0.005-0.361-0.007-0.708-0.007-1.038
		c0-0.331,0-0.622,0-0.872c0-0.34,0-0.638,0-0.893s0.005-0.447,0.014-0.577c-0.019-0.19,0.038-0.343,0.171-0.458
		c0.133-0.114,0.28-0.172,0.442-0.172c0.237,0,0.404,0.074,0.499,0.225C46.022,45.913,46.064,46.088,46.055,46.288z M45.955,54.51
		c0-0.08,0.009-0.163,0.028-0.248s0.057-0.163,0.114-0.233s0.123-0.12,0.199-0.15s0.195-0.05,0.356-0.061c0.152,0,0.349,0,0.591,0
		s0.508,0,0.798,0c0.29,0,0.592,0,0.905,0s0.622,0,0.926,0c0.247,0,0.491,0,0.734,0c0.242,0,0.47,0,0.684,0
		c0.214,0,0.406-0.002,0.577-0.007c0.171-0.005,0.313-0.008,0.428-0.008c0.161,0,0.309,0.051,0.442,0.152
		c0.133,0.101,0.199,0.237,0.199,0.41c0,0.202-0.052,0.356-0.157,0.463s-0.247,0.17-0.427,0.189
		c-0.114,0.01-0.276,0.016-0.485,0.016s-0.437,0-0.684,0s-0.494,0-0.741,0s-0.461,0-0.641,0c-0.238,0-0.458,0-0.663,0
		c-0.205,0-0.404,0-0.599,0c-0.195,0-0.397-0.003-0.605-0.008c-0.209-0.005-0.433-0.008-0.67-0.008
		c-0.01,0.15-0.014,0.266-0.014,0.345c0,0.081,0,0.226,0,0.436v1.74c0,0.14,0.016,0.215,0.05,0.225
		c0.033,0.01,0.078,0.015,0.135,0.015l2.807-0.015c0.304-0.01,0.639-0.018,1.005-0.022s0.7-0.008,1.004-0.008
		c0.209,0,0.387,0.045,0.535,0.136c0.147,0.09,0.221,0.229,0.221,0.42c0,0.159-0.043,0.292-0.128,0.397
		c-0.085,0.104-0.218,0.167-0.399,0.188c-0.247,0.029-0.513,0.047-0.798,0.052s-0.641,0.008-1.069,0.008h-1.411
		c-0.428,0-0.872,0.003-1.333,0.008s-0.857-0.003-1.19-0.022c-0.171-0.011-0.306-0.038-0.406-0.083
		c-0.1-0.045-0.174-0.108-0.221-0.188c-0.047-0.081-0.078-0.171-0.092-0.271c-0.015-0.101-0.026-0.211-0.036-0.331
		c0-0.06-0.002-0.15-0.007-0.271c-0.005-0.121-0.007-0.248-0.007-0.384s0-0.271,0-0.406s0-0.243,0-0.323
		c0-0.221,0.002-0.448,0.007-0.685c0.005-0.235,0.009-0.454,0.014-0.654c0.005-0.201,0.009-0.374,0.014-0.519
		C45.953,54.658,45.955,54.56,45.955,54.51z M48.421,51.343c0.009-0.16,0.012-0.32,0.007-0.48c-0.005-0.159-0.002-0.34,0.007-0.54
		c0-0.05,0-0.122,0-0.217s0-0.192,0-0.293c0-0.1,0.002-0.199,0.007-0.3c0.004-0.1,0.007-0.18,0.007-0.24
		c-0.427,0-0.827,0.003-1.197,0.008c-0.371,0.005-0.774,0.008-1.211,0.008v2.04L48.421,51.343z M51.698,47.743
		c0-0.15-0.002-0.323-0.007-0.518c-0.005-0.195-0.01-0.383-0.015-0.563c-0.005-0.181-0.009-0.343-0.014-0.488
		c-0.005-0.145-0.007-0.237-0.007-0.277c-0.02-0.18,0.036-0.319,0.164-0.42c0.128-0.1,0.273-0.159,0.435-0.18
		c0.162-0.01,0.313,0.027,0.456,0.112s0.223,0.232,0.242,0.442c0.009,0.21,0.017,0.41,0.021,0.601c0.005,0.189,0.007,0.39,0.007,0.6
		s0,0.445,0,0.705s0,0.561,0,0.9h1.61c0.181,0,0.328,0.041,0.442,0.125c0.114,0.084,0.176,0.21,0.186,0.378
		c0.009,0.168-0.029,0.326-0.114,0.475c-0.085,0.147-0.247,0.217-0.484,0.207c-0.266,0.01-0.532,0.015-0.798,0.015
		c-0.266,0-0.551,0-0.855,0c0,0.23-0.005,0.44-0.014,0.63c-0.009,0.19-0.009,0.391,0,0.601s0.009,0.412,0,0.607
		s-0.014,0.428-0.014,0.697c0,0.2-0.069,0.355-0.207,0.465c-0.138,0.11-0.273,0.165-0.406,0.165c-0.162,0-0.309-0.055-0.442-0.165
		c-0.133-0.109-0.199-0.285-0.199-0.524c0-1.061,0.002-1.952,0.007-2.678C51.696,48.931,51.698,48.293,51.698,47.743z"/>
	<path fill="#FF746D" stroke="#FF746D" stroke-width="0.2" stroke-miterlimit="10" d="M56.571,47.473
		c-0.218,0-0.382-0.059-0.491-0.178c-0.109-0.118-0.164-0.252-0.164-0.399c0-0.158,0.059-0.296,0.178-0.415
		c0.119-0.118,0.287-0.173,0.506-0.163c0.247,0.011,0.563,0.016,0.948,0.016c0.384,0,0.805-0.005,1.261-0.016
		c0.247-0.01,0.478-0.015,0.691-0.015c0.213,0,0.42-0.01,0.62-0.03c0.038,0,0.109-0.002,0.214-0.007s0.171-0.008,0.2-0.008
		c0.38-0.02,0.648,0.057,0.805,0.229s0.192,0.501,0.107,0.985c-0.133,0.7-0.352,1.415-0.655,2.146
		c-0.304,0.729-0.665,1.438-1.083,2.122c-0.418,0.686-0.884,1.335-1.396,1.95c-0.513,0.615-1.045,1.162-1.596,1.643
		c-0.047,0.05-0.114,0.093-0.199,0.127c-0.085,0.035-0.174,0.061-0.264,0.075c-0.09,0.015-0.176,0.008-0.257-0.022
		c-0.081-0.03-0.149-0.09-0.207-0.18c-0.104-0.17-0.124-0.335-0.057-0.495c0.066-0.16,0.147-0.285,0.242-0.375
		c0.456-0.43,0.9-0.907,1.332-1.433s0.829-1.08,1.19-1.665s0.677-1.189,0.948-1.815c0.271-0.624,0.478-1.252,0.62-1.882
		c0.019-0.1,0.023-0.165,0.014-0.195c-0.01-0.03-0.067-0.045-0.171-0.045c-0.247,0-0.539,0.003-0.876,0.008
		c-0.337,0.005-0.672,0.013-1.005,0.022c-0.133,0-0.273,0.002-0.42,0.007c-0.147,0.006-0.287,0.008-0.42,0.008
		c-0.133,0-0.254,0-0.363,0S56.628,47.473,56.571,47.473z M63.241,53.998c0-1.37,0-2.735,0-4.096c0-1.359-0.005-2.725-0.015-4.095
		c0-0.21,0.057-0.37,0.171-0.479c0.114-0.11,0.266-0.165,0.456-0.165c0.209,0,0.366,0.064,0.471,0.194
		c0.104,0.131,0.157,0.28,0.157,0.45c0,0.2,0,0.458,0,0.772c0,0.315,0,0.668,0,1.058s-0.002,0.803-0.007,1.237
		c-0.005,0.436-0.007,0.868-0.007,1.298c0,0.68,0,1.397,0,2.152s0,1.492,0,2.213c0,0.72-0.002,1.397-0.007,2.032
		c-0.005,0.635-0.012,1.183-0.021,1.643c-0.01,0.2-0.076,0.353-0.2,0.457c-0.124,0.105-0.251,0.158-0.385,0.158
		c-0.19,0-0.342-0.065-0.456-0.195c-0.114-0.13-0.171-0.271-0.171-0.42c0.01-0.351,0.017-0.71,0.021-1.08s0.007-0.755,0.007-1.155
		c0-0.279-0.002-0.603-0.007-0.968C63.242,54.645,63.241,54.308,63.241,53.998z"/>
</g>
<g>
	<path fill="#FF746D" d="M30.344,36.757c-7.174,0-13.536-0.165-14.021-0.527c-1.294-0.972-1.268-12.05-0.722-12.959
		c0.136-0.226,0.38-0.364,0.643-0.364h6.587c0.2,0,0.392,0.08,0.532,0.222c0.141,0.142,0.219,0.334,0.218,0.534l-0.043,5.583
		l20.569-0.178c-0.273-5.644,0.362-6.104,0.641-6.306c0.857-0.625,5.885-0.504,6.921-0.089c0.538,0.215,0.883,0.81,1.052,3.219
		c0.006,0.089,0.476,9.032-1.392,10.1C50.479,36.477,39.718,36.757,30.344,36.757z M17.27,34.982
		c3.328,0.502,30.995,0.267,33.293-0.298c0.84-1.178,0.935-9.231,0.38-10.67c-1.016-0.245-4.332-0.231-5.233-0.041
		c-0.197,0.772-0.197,3.505-0.064,5.793c0.012,0.205-0.061,0.406-0.201,0.556c-0.141,0.15-0.336,0.236-0.542,0.238l-22.116,0.191
		c-0.181-0.015-0.394-0.077-0.537-0.219c-0.142-0.142-0.221-0.335-0.22-0.537l0.043-5.59h-5.263
		C16.506,26.407,16.799,33.519,17.27,34.982z"/>
	<path fill="#FF746D" d="M33.614,24.872c-0.036,0-0.07-0.002-0.104-0.005c-1.986-0.222-7.812-6.634-8.574-8.417
		c-0.212-0.498-0.199-0.909,0.04-1.222c0.586-0.767,2.745-0.996,4.77-1.031c-0.765-2.647-2.382-8.795-1.538-10.822l0,0
		c0.203-0.486,0.749-0.666,0.928-0.725c1.886-0.62,8.641-0.491,9.767,0.186c0.472,0.284,1.339,0.804-1.09,11.463
		c4.874-0.367,5.074,0.085,5.271,0.522c0.212,0.473-0.05,0.916-0.655,1.747C42.366,16.65,35.989,24.871,33.614,24.872z
		 M26.395,16.062c0.881,1.74,6.178,7.129,7.284,7.313c1.079-0.148,6.019-5.53,7.57-7.702c-1.018-0.019-2.799,0.068-4.333,0.201
		c-0.237,0.021-0.474-0.075-0.631-0.256c-0.157-0.182-0.218-0.428-0.164-0.662c1.034-4.434,1.988-9.667,1.839-10.896
		c-1.354-0.372-7.302-0.456-8.416,0.027c-0.467,1.642,0.911,7.331,1.922,10.635c0.07,0.229,0.026,0.477-0.117,0.669
		c-0.143,0.191-0.359,0.307-0.608,0.301C28.953,15.68,27.121,15.839,26.395,16.062z"/>
</g>
</svg>
