<?xml version="1.0" encoding="utf-8"?>
<!-- Generator: Adobe Illustrator 19.1.0, SVG Export Plug-In . SVG Version: 6.00 Build 0)  -->
<svg version="1.1" id="아이콘" xmlns="http://www.w3.org/2000/svg" xmlns:xlink="http://www.w3.org/1999/xlink" x="0px" y="0px"
	 viewBox="0 0 68 60" enable-background="new 0 0 68 60" xml:space="preserve">
<g>
	<path fill="#FF746D" stroke="#FF746D" stroke-width="0.2" stroke-miterlimit="10" d="M23.712,55.258
		c0.209,0,0.403,0.003,0.584,0.008s0.373,0.007,0.577,0.007s0.439-0.002,0.705-0.007s0.589-0.018,0.969-0.038
		c0.124,0,0.255-0.002,0.393-0.007c0.138-0.006,0.268-0.008,0.392-0.008c0.143,0,0.285-0.005,0.428-0.016
		c0.189,0,0.352,0.045,0.484,0.134s0.199,0.232,0.199,0.43c0,0.218-0.05,0.368-0.149,0.452s-0.221,0.15-0.363,0.2
		c-0.038,0.01-0.109,0.018-0.214,0.022s-0.214,0.007-0.328,0.007c-0.133,0.011-0.28,0.016-0.441,0.016
		c-0.617,0.02-1.247,0.027-1.888,0.022c-0.642-0.005-1.271-0.008-1.889-0.008c-0.684,0-1.327,0-1.931,0s-1.228-0.005-1.874-0.015
		c-0.048,0-0.147,0.007-0.299,0.022c-0.152,0.015-0.328,0.022-0.527,0.022c-0.162,0-0.307-0.055-0.435-0.163
		c-0.129-0.109-0.192-0.271-0.192-0.489c0-0.158,0.057-0.302,0.171-0.43c0.114-0.129,0.271-0.193,0.47-0.193c0.076,0,0.192,0,0.35,0
		c0.156,0,0.322,0.003,0.499,0.008c0.175,0.005,0.342,0.008,0.498,0.008c0.157,0,0.278,0,0.363,0c0.181,0,0.356,0.002,0.527,0.007
		c0.171,0.006,0.38,0.008,0.627,0.008s0.551,0,0.912,0S23.152,55.258,23.712,55.258z M27.146,51.897
		c0.02,0.261-0.063,0.431-0.249,0.511s-0.383,0.125-0.592,0.135c-0.151,0.01-0.358,0.018-0.619,0.022
		c-0.262,0.005-0.556,0.01-0.884,0.015s-0.684,0.01-1.068,0.016c-0.385,0.005-0.782,0.007-1.19,0.007c-0.161,0-0.358,0-0.591,0
		c-0.233,0-0.485,0.003-0.756,0.008s-0.546,0.008-0.826,0.008s-0.554,0-0.819,0c-0.229,0-0.383-0.075-0.463-0.226
		c-0.081-0.149-0.112-0.3-0.093-0.45c0.019-0.14,0.08-0.26,0.185-0.359c0.104-0.101,0.257-0.15,0.456-0.15h0.998
		c0-0.16-0.003-0.335-0.008-0.524c-0.005-0.19-0.009-0.383-0.014-0.578s-0.007-0.388-0.007-0.577c0-0.19,0-0.365,0-0.525
		c0-0.17,0-0.317,0-0.442s0.004-0.228,0.014-0.308c0.02-0.17,0.071-0.319,0.157-0.45c0.085-0.13,0.247-0.194,0.484-0.194
		c0.171,0,0.315,0.045,0.435,0.135c0.118,0.09,0.183,0.22,0.192,0.39v0.285c0,0.141,0.002,0.315,0.007,0.525
		s0.007,0.445,0.007,0.705c0,0.27-0.002,0.542-0.007,0.817s-0.002,0.527,0.007,0.757c0.371,0.011,0.739,0.013,1.104,0.008
		c0.366-0.005,0.739-0.013,1.119-0.022c0.009-0.09,0.014-0.183,0.014-0.277s0-0.192,0-0.293c0-0.249,0-0.502,0-0.757
		s-0.002-0.495-0.007-0.721c-0.005-0.225-0.01-0.425-0.014-0.6c-0.005-0.175-0.008-0.303-0.008-0.383
		c-0.01-0.22,0.053-0.38,0.186-0.479s0.28-0.15,0.441-0.15c0.237,0,0.399,0.058,0.484,0.173c0.086,0.115,0.134,0.263,0.143,0.442
		c0.01,0.29,0.017,0.617,0.021,0.982s0.008,0.737,0.008,1.117c0,0.15,0,0.306,0,0.466s-0.005,0.31-0.015,0.449
		c0.133,0,0.269-0.005,0.406-0.015s0.277-0.02,0.42-0.03c0.247-0.02,0.461-0.002,0.642,0.053S27.127,51.628,27.146,51.897z
		 M25.963,46.168c0.229-0.021,0.433,0.002,0.613,0.067c0.18,0.065,0.279,0.228,0.299,0.487c0.01,0.25-0.066,0.415-0.228,0.495
		c-0.162,0.08-0.348,0.125-0.556,0.135c-0.162,0.011-0.373,0.018-0.635,0.022c-0.261,0.006-0.541,0.008-0.841,0.008
		c-0.299,0-0.601,0-0.904,0c-0.305,0-0.57,0-0.798,0c-0.267,0-0.552,0-0.855,0s-0.601,0-0.891,0s-0.567,0-0.834,0
		c-0.266,0-0.494,0-0.684,0c-0.171,0-0.305-0.072-0.399-0.218c-0.095-0.145-0.133-0.287-0.113-0.428
		c0.019-0.14,0.08-0.265,0.185-0.375c0.104-0.109,0.247-0.165,0.428-0.165c0.114,0,0.287,0,0.521,0c0.232,0,0.496,0.003,0.791,0.008
		c0.294,0.005,0.603,0.008,0.926,0.008s0.632,0,0.927,0c0.351,0,0.669,0,0.954,0s0.549-0.003,0.791-0.008s0.471-0.01,0.684-0.015
		C25.557,46.186,25.764,46.178,25.963,46.168z"/>
	<path fill="#FF746D" stroke="#FF746D" stroke-width="0.2" stroke-miterlimit="10" d="M31.663,52.078c0.37,0,0.724-0.01,1.062-0.03
		c0.337-0.021,0.662-0.045,0.976-0.075c0.114-0.01,0.237-0.022,0.371-0.037c0.133-0.016,0.259-0.035,0.377-0.061
		c0.119-0.024,0.224-0.047,0.313-0.067c0.091-0.02,0.159-0.035,0.207-0.045c0.247-0.05,0.441-0.015,0.584,0.105
		c0.143,0.119,0.214,0.27,0.214,0.449c0,0.11-0.038,0.221-0.114,0.33c-0.076,0.11-0.18,0.195-0.313,0.255
		c-0.076,0.021-0.213,0.056-0.413,0.105c-0.199,0.05-0.437,0.085-0.712,0.104c-0.703,0.051-1.278,0.086-1.725,0.105
		c-0.446,0.021-0.836,0.03-1.169,0.03c-0.113,0-0.234,0-0.363,0c-0.128,0-0.249-0.005-0.363-0.016
		c-0.199-0.01-0.361-0.042-0.484-0.098c-0.123-0.055-0.219-0.127-0.285-0.217s-0.111-0.192-0.135-0.308
		c-0.024-0.115-0.036-0.242-0.036-0.383v-1.5c0-0.17,0-0.335,0-0.495c0-0.159-0.005-0.295-0.014-0.404
		c-0.029-0.59,0.208-0.886,0.712-0.886c0.19,0,0.425,0,0.706,0c0.279,0,0.564-0.002,0.854-0.007c0.29-0.005,0.567-0.01,0.834-0.016
		c0.266-0.005,0.479-0.012,0.641-0.022c0.02-0.31,0.026-0.607,0.021-0.893c-0.005-0.284-0.012-0.547-0.021-0.787
		c0-0.07-0.005-0.115-0.014-0.135c-0.01-0.021-0.053-0.03-0.129-0.03c-0.398,0.021-0.776,0.032-1.133,0.037
		c-0.355,0.006-0.619,0.008-0.791,0.008c-0.066,0-0.151,0-0.256,0s-0.214,0-0.328,0s-0.224-0.002-0.327-0.008
		c-0.105-0.005-0.186-0.012-0.242-0.022c-0.21-0.02-0.348-0.107-0.414-0.262c-0.066-0.155-0.095-0.303-0.085-0.443
		c0.009-0.13,0.071-0.242,0.185-0.337c0.114-0.095,0.267-0.143,0.456-0.143c0.152,0,0.273,0.003,0.364,0.008
		c0.09,0.005,0.187,0.007,0.292,0.007h0.912c0.503,0,0.888-0.005,1.153-0.015c0.267-0.01,0.499-0.025,0.699-0.045
		c0.379-0.04,0.627,0.008,0.74,0.143c0.114,0.135,0.176,0.362,0.186,0.683c0,0.26,0,0.522,0,0.787s0,0.516,0,0.75
		c0,0.235,0,0.445,0,0.63c0,0.186,0,0.317,0,0.397c0,0.11,0,0.218,0,0.322c0,0.105-0.02,0.198-0.057,0.278
		c-0.038,0.08-0.105,0.143-0.2,0.188S34.171,50.083,34,50.083c-0.152,0-0.418,0.002-0.798,0.007
		c-0.381,0.006-0.804,0.008-1.269,0.008c-0.199,0-0.366,0.003-0.499,0.008s-0.299,0.007-0.499,0.007
		c-0.019,0.341-0.025,0.678-0.021,1.013c0.004,0.335,0.012,0.583,0.021,0.743c0,0.14,0.063,0.21,0.186,0.21H31.663z M32.647,57.658
		c0.427,0.01,0.816,0.017,1.168,0.022c0.352,0.005,0.708,0.007,1.068,0.007c0.399,0,0.824,0.003,1.275,0.008
		s0.948-0.018,1.489-0.067c0.152-0.021,0.297,0.013,0.435,0.098s0.212,0.227,0.222,0.427c0.009,0.21-0.021,0.37-0.093,0.48
		c-0.071,0.109-0.217,0.18-0.435,0.21c-0.181,0.03-0.361,0.047-0.542,0.053c-0.181,0.005-0.383,0.007-0.605,0.007
		c-0.224,0-0.478-0.002-0.763-0.007c-0.285-0.006-0.612-0.008-0.983-0.008c-0.342,0-0.731,0-1.168,0
		c-0.438,0-0.932,0.005-1.482,0.015c-0.408,0-0.695-0.074-0.861-0.225c-0.167-0.15-0.245-0.415-0.235-0.795
		c0.009-0.42,0.014-0.883,0.014-1.388s0-0.947,0-1.327c0-0.25,0.076-0.433,0.229-0.548c0.151-0.114,0.327-0.173,0.527-0.173
		c0.123,0,0.256,0.051,0.398,0.15c0.143,0.101,0.209,0.245,0.2,0.436c-0.01,0.3-0.018,0.56-0.021,0.779
		c-0.005,0.221-0.008,0.4-0.008,0.54c0,0.12,0,0.266,0,0.436s-0.005,0.369-0.014,0.6c-0.01,0.14,0,0.22,0.028,0.24
		C32.518,57.647,32.57,57.658,32.647,57.658z M36.836,45.868c0-0.2,0.066-0.351,0.199-0.45s0.28-0.15,0.441-0.15
		c0.143,0,0.275,0.045,0.399,0.135c0.123,0.091,0.199,0.221,0.228,0.391c0.02,0.18,0.028,0.39,0.028,0.63s0,0.605,0,1.095
		c0,0.44-0.002,0.988-0.007,1.643c-0.005,0.655-0.012,1.333-0.021,2.032c-0.01,0.7-0.017,1.373-0.021,2.018
		c-0.005,0.646-0.012,1.173-0.021,1.583c-0.009,0.2-0.076,0.362-0.199,0.487s-0.261,0.188-0.413,0.188
		c-0.171,0-0.323-0.063-0.456-0.188s-0.19-0.313-0.171-0.563c0-0.271,0.002-0.57,0.007-0.9s0.012-0.654,0.021-0.975
		c0-0.31,0.002-0.635,0.007-0.975s0.01-0.683,0.015-1.028c0.005-0.345,0.007-0.685,0.007-1.02s0-0.652,0-0.952
		c0-0.431-0.002-0.798-0.007-1.103c-0.005-0.306-0.012-0.633-0.021-0.982c0-0.101-0.002-0.248-0.007-0.443
		C36.838,46.145,36.836,45.987,36.836,45.868z"/>
	<path fill="#FF746D" stroke="#FF746D" stroke-width="0.2" stroke-miterlimit="10" d="M49.376,55.228
		c0.189,0,0.347,0.043,0.47,0.128s0.186,0.232,0.186,0.442c0,0.19-0.036,0.33-0.107,0.42s-0.188,0.16-0.349,0.21v-0.015
		c-0.058,0.02-0.121,0.035-0.192,0.045s-0.146,0.015-0.221,0.015H48.92c-0.313,0-0.625-0.002-0.934-0.008
		c-0.309-0.005-0.615-0.007-0.919-0.007c-0.267,0-0.502,0-0.706,0s-0.403-0.003-0.599-0.008c-0.194-0.005-0.394-0.008-0.598-0.008
		c-0.205,0-0.435,0-0.691,0c-0.237,0-0.509,0.003-0.813,0.008s-0.605,0.008-0.904,0.008c-0.3,0-0.582,0.002-0.849,0.007
		c-0.266,0.006-0.479,0.008-0.641,0.008c-0.134,0-0.245,0-0.335,0c-0.091,0-0.176,0.003-0.257,0.008s-0.161,0.007-0.242,0.007
		s-0.174,0-0.278,0c-0.161,0-0.299-0.055-0.413-0.165c-0.113-0.109-0.171-0.265-0.171-0.465c0-0.17,0.05-0.308,0.149-0.412
		c0.101-0.105,0.217-0.167,0.35-0.188c0.133-0.02,0.269-0.027,0.406-0.022s0.282,0.008,0.435,0.008
		c0.541-0.011,1.08-0.005,1.617,0.015c0.537,0.021,1.128,0.025,1.774,0.015c0.703-0.01,1.458-0.02,2.266-0.029
		C47.376,55.232,48.312,55.228,49.376,55.228z M41.381,46.798c0-0.21,0.05-0.388,0.15-0.532c0.1-0.146,0.264-0.218,0.491-0.218
		c0.304,0,0.7,0.005,1.189,0.015c0.489,0.011,1.033,0.016,1.632,0.016c0.247,0,0.501-0.003,0.763-0.008
		c0.261-0.005,0.511-0.01,0.748-0.015s0.453-0.011,0.648-0.016c0.194-0.005,0.349-0.007,0.463-0.007
		c0.275-0.011,0.458,0.055,0.549,0.194c0.09,0.141,0.136,0.285,0.136,0.436c0,0.13-0.046,0.245-0.136,0.345
		c-0.091,0.1-0.212,0.16-0.363,0.18c-0.333,0.04-0.768,0.065-1.304,0.075c-0.537,0.01-1.104,0.015-1.703,0.015
		c-0.399,0-0.755,0-1.068,0s-0.623-0.005-0.927-0.015c-0.01,0.17-0.014,0.388-0.014,0.652c0,0.266,0,0.567,0,0.907h1.438
		c0.58,0,1.154-0.002,1.725-0.007s1.106-0.018,1.61-0.038c0.418-0.01,0.627,0.186,0.627,0.585c0,0.32-0.152,0.506-0.456,0.556
		c-0.152,0.02-0.358,0.037-0.62,0.053c-0.261,0.015-0.554,0.027-0.876,0.037c-0.323,0.01-0.665,0.018-1.026,0.022
		s-0.712,0.008-1.055,0.008h-1.367v1.425c0,0.11,0.019,0.172,0.057,0.188c0.038,0.015,0.085,0.022,0.143,0.022h1.025
		c0.38,0,0.731-0.003,1.055-0.008s0.639-0.01,0.948-0.015c0.309-0.005,0.627-0.016,0.954-0.03c0.328-0.015,0.687-0.032,1.076-0.053
		c0.428-0.02,0.642,0.171,0.642,0.57c0,0.13-0.041,0.255-0.121,0.375c-0.081,0.12-0.217,0.19-0.406,0.21
		c-0.124,0.01-0.302,0.021-0.535,0.03c-0.232,0.01-0.486,0.02-0.762,0.03c-0.275,0.01-0.556,0.02-0.841,0.029
		c-0.285,0.011-0.537,0.016-0.755,0.016c-0.305,0-0.575,0-0.813,0c-0.238,0-0.461,0-0.67,0s-0.416,0-0.62,0s-0.425,0-0.662,0
		c-0.219,0-0.393-0.025-0.521-0.075s-0.226-0.125-0.292-0.226c-0.066-0.1-0.109-0.212-0.128-0.337
		c-0.02-0.125-0.029-0.263-0.029-0.413c0-0.119-0.002-0.282-0.007-0.487s-0.01-0.433-0.014-0.683
		c-0.005-0.25-0.008-0.51-0.008-0.779c0-0.271,0-0.525,0-0.766c0-0.27,0-0.532,0-0.787s0.003-0.485,0.008-0.69
		c0.004-0.204,0.009-0.377,0.014-0.518C41.379,46.928,41.381,46.838,41.381,46.798z"/>
</g>
<g>
	<path fill="#FF746D" d="M34.238,36.721c-5.079,0-10.249-0.204-10.734-0.603c-0.271-0.224-0.369-0.659-0.21-0.972
		c1.009-1.993,2.069-8.492,2.089-10.992c0.003-0.392,0.307-0.715,0.698-0.742c2.542-0.177,13.762-0.017,15.795,0.179
		c0.386,0.037,0.68,0.363,0.678,0.75c-0.015,2.965,0.885,8.348,2.068,10.844c0.15,0.318,0.039,0.751-0.238,0.967
		C43.894,36.533,39.108,36.721,34.238,36.721z M24.983,34.992c3.108,0.347,14.82,0.36,17.938,0.018
		c-1.02-2.679-1.76-7.041-1.856-9.973c-2.829-0.152-11.158-0.266-14.206-0.162C26.709,27.587,25.893,32.484,24.983,34.992z"/>
	<path fill="#FF746D" d="M45.48,28.932c-0.41,0-0.745-0.33-0.75-0.741c-0.005-0.414,0.327-0.754,0.741-0.759
		c3.36-0.039,4.575-0.107,5.002-0.157c0.413-1.113,0.558-6.522-0.812-9.614c-0.284-0.641-0.756-1.429-1.392-1.54
		c-1.422-0.246-27.207-0.257-28.386-0.145c-0.366,0.035-0.773,0.458-1.147,1.192c-1.475,2.891-1.739,8.811-1.321,10.072
		c0.443,0.044,1.683,0.107,5.019,0.156c0.415,0.006,0.745,0.347,0.739,0.761c-0.005,0.414-0.318,0.767-0.761,0.739
		c-5.014-0.073-5.397-0.182-5.603-0.24c-0.96-0.274-1.281-2.216-0.953-5.77c0.224-2.437,1.052-8.134,3.886-8.403
		c1.298-0.124,27.205-0.114,28.785,0.161c2.589,0.451,3.376,4.746,3.616,7.266c0.06,0.63,0.54,6.171-0.991,6.75
		c-0.299,0.113-0.957,0.218-5.663,0.273C45.485,28.932,45.483,28.932,45.48,28.932z"/>
	<path fill="#FF746D" d="M26.569,15.508c-0.391,0-0.721-0.304-0.748-0.7c-0.007-0.109-0.351-11.238,0.708-12.11
		c0.874-0.719,14.107-0.523,14.906,0.22c1.035,0.963,0.664,11.649,0.657,11.755c-0.026,0.413-0.371,0.728-0.796,0.701
		c-0.413-0.026-0.727-0.382-0.701-0.796c0.196-3.103,0.043-9.128-0.244-10.514C38.601,3.74,29.545,3.626,27.587,3.9
		c-0.262,1.495-0.468,7.819-0.268,10.809c0.027,0.413-0.285,0.771-0.699,0.798C26.603,15.508,26.586,15.508,26.569,15.508z"/>
	<path fill="#FF746D" d="M22.007,15.508c-0.355,0-0.671-0.253-0.737-0.616c-0.198-1.086-0.365-7.2,1.227-7.682
		c0.159-0.049,0.379-0.116,3.601-0.164c0.461-0.003,0.755,0.325,0.761,0.739c0.006,0.415-0.325,0.755-0.739,0.761
		c-1.916,0.028-2.703,0.064-3.024,0.088c-0.363,0.899-0.635,4.426-0.351,5.989c0.074,0.407-0.196,0.798-0.604,0.872
		C22.097,15.504,22.052,15.508,22.007,15.508z"/>
	<path fill="#FF746D" d="M45.902,15.429c-0.042,0-0.085-0.003-0.128-0.011c-0.408-0.07-0.682-0.458-0.612-0.866
		c0.295-1.718,0.057-5.024-0.306-5.814c-0.271-0.026-1.065-0.083-3.235-0.131c-0.414-0.009-0.742-0.353-0.733-0.767
		c0.01-0.414,0.365-0.74,0.767-0.733c3.381,0.076,3.653,0.171,3.815,0.227c1.649,0.563,1.334,6.52,1.17,7.472
		C46.577,15.171,46.26,15.429,45.902,15.429z"/>
	<path fill="#FF746D" d="M45.669,22.732c-0.294,0-0.592-0.06-0.871-0.18c-0.58-0.251-0.997-0.722-1.174-1.325
		c-0.374-1.266,0.39-2.178,0.995-2.482v0c0.558-0.279,1.197-0.331,1.753-0.138c0.518,0.179,0.921,0.547,1.167,1.067
		c0.425,0.901,0.139,2.291-0.951,2.845C46.307,22.661,45.99,22.732,45.669,22.732z M45.293,20.085
		c-0.004,0.002-0.381,0.208-0.23,0.719c0.051,0.174,0.162,0.299,0.331,0.372c0.173,0.074,0.375,0.077,0.516,0.005
		c0.342-0.174,0.358-0.687,0.273-0.867c-0.072-0.151-0.167-0.243-0.299-0.289C45.714,19.967,45.482,19.991,45.293,20.085
		L45.293,20.085z"/>
	<path fill="#FF746D" d="M35.027,28.12h-6.302c-0.414,0-0.75-0.336-0.75-0.75s0.336-0.75,0.75-0.75h6.302
		c0.414,0,0.75,0.336,0.75,0.75S35.441,28.12,35.027,28.12z"/>
	<path fill="#FF746D" d="M38.868,31.195c-0.003,0-0.007,0-0.011,0l-10.605-0.154c-0.414-0.006-0.745-0.347-0.739-0.761
		s0.351-0.709,0.761-0.739l10.605,0.154c0.414,0.006,0.745,0.347,0.739,0.761C39.612,30.867,39.277,31.195,38.868,31.195z"/>
	<path fill="#FF746D" d="M34.566,33.807H28.11c-0.414,0-0.75-0.336-0.75-0.75s0.336-0.75,0.75-0.75h6.455
		c0.414,0,0.75,0.336,0.75,0.75S34.98,33.807,34.566,33.807z"/>
</g>
</svg>
