<?xml version="1.0" encoding="utf-8"?>
<!-- Generator: Adobe Illustrator 19.1.0, SVG Export Plug-In . SVG Version: 6.00 Build 0)  -->
<svg version="1.1" id="아이콘" xmlns="http://www.w3.org/2000/svg" xmlns:xlink="http://www.w3.org/1999/xlink" x="0px" y="0px"
	 viewBox="0 0 68 60" enable-background="new 0 0 68 60" xml:space="preserve">
<g>
	<path fill="#FF746D" stroke="#FF746D" stroke-width="0.2" stroke-miterlimit="10" d="M13.822,55.152
		c-0.095,0.11-0.228,0.198-0.398,0.263c-0.171,0.065-0.333,0.028-0.485-0.112c-0.133-0.13-0.188-0.275-0.163-0.435
		c0.023-0.16,0.078-0.301,0.163-0.421c0.371-0.529,0.731-1.087,1.083-1.672s0.673-1.18,0.962-1.785
		c0.29-0.604,0.549-1.207,0.777-1.808c0.228-0.6,0.408-1.185,0.541-1.755c0.02-0.08,0.021-0.13,0.008-0.15
		c-0.015-0.02-0.06-0.029-0.136-0.029c-0.181,0.01-0.459,0.02-0.834,0.029c-0.375,0.011-0.738,0.016-1.09,0.016
		c-0.143,0-0.28,0-0.413,0c-0.134,0-0.247-0.005-0.342-0.016c-0.181-0.02-0.34-0.069-0.478-0.149s-0.207-0.235-0.207-0.465
		c0-0.21,0.071-0.36,0.214-0.45s0.294-0.135,0.456-0.135c0.257,0,0.522,0,0.798,0s0.542-0.003,0.798-0.008
		c0.257-0.005,0.492-0.01,0.706-0.015c0.213-0.005,0.392-0.013,0.534-0.022c0.095-0.011,0.23-0.018,0.406-0.023
		c0.176-0.005,0.301-0.007,0.377-0.007c0.305,0,0.494,0.077,0.57,0.232s0.104,0.332,0.086,0.532c-0.067,0.55-0.197,1.15-0.393,1.8
		c-0.194,0.65-0.444,1.311-0.748,1.98c0.285,0.67,0.594,1.325,0.927,1.965c0.332,0.64,0.665,1.245,0.997,1.815
		c0.104,0.18,0.143,0.357,0.114,0.532s-0.091,0.292-0.186,0.353c-0.181,0.11-0.335,0.145-0.463,0.104
		c-0.128-0.039-0.259-0.14-0.392-0.3c-0.086-0.1-0.192-0.252-0.321-0.457c-0.128-0.205-0.269-0.44-0.42-0.705
		c-0.152-0.265-0.312-0.553-0.478-0.862c-0.166-0.311-0.33-0.631-0.491-0.96c-0.323,0.6-0.661,1.165-1.012,1.694
		C14.54,54.258,14.183,54.732,13.822,55.152z M19.807,58.169c0-0.829,0-1.689,0-2.583s-0.003-1.771-0.007-2.636
		c-0.005-0.863-0.01-1.689-0.015-2.479s-0.012-1.496-0.021-2.121s-0.017-1.143-0.021-1.553s-0.012-0.675-0.021-0.795
		c-0.01-0.21,0.048-0.373,0.171-0.487c0.124-0.115,0.262-0.183,0.414-0.203c0.246-0.02,0.427,0.03,0.541,0.15s0.171,0.27,0.171,0.45
		c0,0.12,0,0.308,0,0.563s0.005,0.472,0.015,0.652c0.009,0.27,0.017,0.52,0.021,0.75c0.004,0.229,0.009,0.46,0.014,0.689
		c0.005,0.23,0.008,0.48,0.008,0.75c0,0.271,0,0.575,0,0.915h0.727c0.161,0,0.327,0,0.498,0c0.172,0,0.347-0.005,0.527-0.015
		c0.219,0,0.383,0.06,0.492,0.178c0.108,0.119,0.164,0.257,0.164,0.415c0,0.148-0.058,0.286-0.172,0.415
		c-0.113,0.128-0.271,0.192-0.47,0.192c-0.352,0-0.672,0-0.962,0s-0.563,0.005-0.819,0.015c0,0.29-0.003,0.59-0.007,0.9
		c-0.005,0.31-0.008,0.625-0.008,0.944c0,0.69,0.005,1.416,0.015,2.176s0.023,1.46,0.043,2.1c0,0.189,0,0.36,0,0.51
		c0,0.15-0.01,0.275-0.028,0.375c-0.048,0.2-0.124,0.322-0.229,0.368c-0.104,0.045-0.232,0.067-0.385,0.067
		c-0.266,0-0.441-0.075-0.527-0.225C19.85,58.498,19.807,58.339,19.807,58.169z"/>
	<path fill="#FF746D" stroke="#FF746D" stroke-width="0.2" stroke-miterlimit="10" d="M25.707,46.197
		c0-0.439,0.232-0.645,0.698-0.614c0.151,0,0.34,0.002,0.563,0.007c0.224,0.006,0.466,0.008,0.727,0.008c0.262,0,0.535,0,0.819,0
		c0.285,0,0.57,0,0.855,0c0.475,0,0.912,0,1.311,0c0.399,0,0.708-0.01,0.927-0.03c0.171,0.011,0.335,0.061,0.491,0.15
		c0.157,0.09,0.235,0.22,0.235,0.39c0,0.2-0.052,0.353-0.156,0.458c-0.105,0.104-0.252,0.167-0.442,0.188
		c-0.228,0.02-0.503,0.03-0.826,0.03s-0.655,0-0.998,0c-0.437,0-0.893,0-1.367,0c-0.476,0-0.979-0.006-1.511-0.016
		c-0.01,0.13-0.015,0.293-0.015,0.487c0,0.195,0,0.368,0,0.518l0.015,0.96c-0.01,0.141-0.003,0.228,0.021,0.263
		c0.023,0.035,0.059,0.053,0.106,0.053c0.199,0.01,0.392,0.018,0.577,0.022s0.38,0.008,0.584,0.008c0.205,0,0.433,0,0.685,0
		s0.544-0.005,0.876-0.016c0.333-0.01,0.672-0.022,1.02-0.037c0.347-0.016,0.686-0.027,1.019-0.038
		c0.247-0.01,0.437,0.033,0.57,0.128c0.133,0.095,0.199,0.242,0.199,0.442c0,0.34-0.186,0.53-0.556,0.57
		c-0.361,0.04-0.756,0.07-1.183,0.09c-0.428,0.021-0.86,0.03-1.297,0.03v0.72c0,0.24-0.003,0.418-0.007,0.532
		c-0.006,0.115-0.008,0.232-0.008,0.353c0.665,0.011,1.347,0.013,2.045,0.008c0.698-0.005,1.347-0.013,1.945-0.022
		c0.408,0,0.612,0.195,0.612,0.585c0,0.2-0.038,0.34-0.113,0.42c-0.076,0.08-0.186,0.14-0.328,0.18
		c-0.048,0.021-0.123,0.03-0.228,0.03c-0.105,0-0.209,0-0.313,0c-0.124,0-0.262-0.005-0.414-0.015
		c-0.551-0.021-1.075-0.03-1.574-0.03s-1.019,0-1.561,0c-0.456,0-0.909,0.003-1.36,0.008c-0.452,0.005-0.905,0.007-1.361,0.007
		s-0.902,0.006-1.34,0.016c-0.437,0.01-0.878,0.015-1.325,0.015c-0.161,0-0.299-0.05-0.413-0.15c-0.114-0.1-0.171-0.255-0.171-0.465
		c0-0.149,0.048-0.272,0.143-0.367s0.209-0.162,0.342-0.202c0.104-0.03,0.24-0.046,0.406-0.046s0.302,0,0.406,0
		c0.456,0.011,0.967,0.021,1.532,0.03c0.564,0.011,1.161,0.011,1.788,0v-1.604c-0.361,0-0.682-0.005-0.962-0.016
		c-0.28-0.01-0.563-0.024-0.848-0.045c-0.219-0.01-0.385-0.042-0.499-0.098c-0.114-0.055-0.199-0.125-0.257-0.21
		c-0.057-0.085-0.09-0.188-0.1-0.308c-0.01-0.119-0.014-0.249-0.014-0.39c-0.01-0.17-0.013-0.372-0.008-0.607
		c0.005-0.234,0.008-0.422,0.008-0.563c0-0.189,0-0.383,0-0.577c0-0.195,0.002-0.375,0.007-0.54s0.01-0.311,0.015-0.436
		C25.704,46.335,25.707,46.248,25.707,46.197z M28.956,54.013c0.437-0.01,0.869,0.021,1.297,0.09c0.427,0.07,0.81,0.203,1.146,0.397
		c0.338,0.195,0.613,0.465,0.827,0.811c0.214,0.345,0.325,0.787,0.335,1.327c0.009,0.56-0.098,1.013-0.321,1.357
		c-0.223,0.345-0.513,0.612-0.869,0.803c-0.356,0.189-0.748,0.314-1.176,0.375c-0.427,0.06-0.841,0.09-1.239,0.09
		c-0.456,0-0.879-0.045-1.269-0.135s-0.731-0.24-1.026-0.45c-0.294-0.21-0.524-0.482-0.69-0.817c-0.167-0.335-0.25-0.748-0.25-1.237
		c0-0.49,0.101-0.9,0.3-1.23s0.456-0.595,0.77-0.795s0.662-0.345,1.047-0.435C28.221,54.072,28.594,54.022,28.956,54.013z
		 M29.027,55.168c-0.247,0.01-0.487,0.04-0.72,0.09c-0.233,0.05-0.439,0.133-0.62,0.247c-0.181,0.115-0.328,0.263-0.441,0.442
		c-0.114,0.181-0.176,0.405-0.186,0.676c0,0.3,0.057,0.545,0.171,0.734c0.114,0.19,0.264,0.343,0.449,0.458
		c0.186,0.114,0.392,0.192,0.62,0.232c0.228,0.04,0.456,0.06,0.684,0.06c0.257,0,0.518-0.015,0.784-0.045
		c0.266-0.029,0.508-0.098,0.727-0.202c0.218-0.105,0.396-0.253,0.534-0.442c0.138-0.19,0.211-0.45,0.221-0.78
		c0.01-0.3-0.057-0.545-0.199-0.735c-0.143-0.189-0.323-0.342-0.542-0.457s-0.461-0.192-0.727-0.232S29.264,55.158,29.027,55.168z"
		/>
	<path fill="#FF746D" stroke="#FF746D" stroke-width="0.2" stroke-miterlimit="10" d="M37.063,50.968
		c0,0.06,0.005,0.107,0.015,0.143c0.009,0.035,0.047,0.053,0.114,0.053c0.143,0.01,0.297,0.013,0.463,0.007
		c0.166-0.005,0.315-0.007,0.449-0.007c0.275,0,0.534-0.008,0.776-0.022c0.242-0.016,0.478-0.033,0.705-0.053
		c0.229-0.021,0.456-0.048,0.685-0.083c0.228-0.034,0.465-0.077,0.712-0.127c0.152-0.03,0.3-0.018,0.441,0.037
		c0.143,0.056,0.233,0.157,0.271,0.308c0.047,0.2,0.03,0.37-0.05,0.51c-0.081,0.141-0.197,0.23-0.35,0.271
		c-0.332,0.09-0.655,0.16-0.969,0.21s-0.632,0.09-0.955,0.12c-0.323,0.029-0.658,0.05-1.005,0.06s-0.719,0.016-1.118,0.016h-0.37
		c-0.381,0-0.665-0.088-0.855-0.263s-0.29-0.487-0.299-0.938c0.009-0.22,0.019-0.525,0.028-0.915
		c0.009-0.391,0.019-0.805,0.028-1.245c0.01-0.42,0.015-0.768,0.015-1.043c0-0.274,0.004-0.527,0.014-0.757
		c0-0.05-0.002-0.115-0.007-0.195s-0.007-0.15-0.007-0.21v-0.39c0-0.2,0.068-0.353,0.206-0.458c0.138-0.104,0.297-0.157,0.478-0.157
		c0.161,0,0.313,0.055,0.456,0.165s0.214,0.27,0.214,0.479c-0.02,0.61-0.038,1.308-0.058,2.093
		C37.073,49.36,37.063,50.158,37.063,50.968z M43.875,58.107c-0.01,0.26-0.078,0.45-0.206,0.57c-0.129,0.12-0.297,0.185-0.506,0.195
		c-0.409,0.02-0.725,0.034-0.948,0.045c-0.223,0.01-0.43,0.015-0.619,0.015c-0.19,0-0.404,0-0.642,0s-0.57,0-0.998,0h-1.738
		c-0.418,0-0.725-0.072-0.919-0.218c-0.194-0.145-0.292-0.427-0.292-0.847c0-0.251,0.002-0.528,0.007-0.833s0.008-0.627,0.008-0.968
		v-1.649c0-0.25,0.075-0.415,0.228-0.495s0.328-0.12,0.527-0.12h2.508c0.456,0,0.917,0,1.383,0c0.465,0,0.94-0.005,1.425-0.015
		c0.561-0.021,0.831,0.229,0.812,0.75v1.425c0,0.39-0.002,0.785-0.007,1.185C43.891,57.548,43.884,57.868,43.875,58.107z
		 M38.346,57.553c0,0.08,0.009,0.138,0.028,0.173c0.019,0.034,0.071,0.052,0.156,0.052c0.275,0,0.525,0.003,0.748,0.008
		c0.224,0.005,0.444,0.008,0.663,0.008c0.39,0,0.783-0.006,1.183-0.016s0.897-0.024,1.496-0.045v-2.475
		c0-0.09-0.012-0.155-0.035-0.195c-0.024-0.04-0.079-0.06-0.164-0.06c-0.323,0.01-0.718,0.015-1.183,0.015c-0.466,0-0.907,0-1.325,0
		c-0.342,0-0.632,0.003-0.869,0.008c-0.238,0.005-0.466,0.008-0.685,0.008c-0.01,0.39-0.014,0.808-0.014,1.252
		C38.346,56.73,38.346,57.152,38.346,57.553z M42.72,45.958c0-0.17,0.05-0.315,0.15-0.436c0.1-0.12,0.226-0.189,0.377-0.21
		c0.171-0.02,0.337,0.021,0.499,0.12c0.161,0.101,0.242,0.25,0.242,0.45c-0.01,0.51-0.015,1.024-0.015,1.544s0,1.036,0,1.55
		c0,0.508,0.003,1.054,0.008,1.639s-0.003,1.218-0.021,1.897c-0.01,0.2-0.076,0.357-0.199,0.473
		c-0.124,0.115-0.262,0.173-0.414,0.173c-0.181,0-0.335-0.058-0.463-0.173s-0.188-0.287-0.178-0.518
		c0.019-0.53,0.03-1.067,0.035-1.612s0.008-1.078,0.008-1.598h-1.61c-0.152,0-0.321,0-0.506,0c-0.186,0-0.321-0.005-0.406-0.015
		c-0.162-0.02-0.292-0.074-0.393-0.163c-0.1-0.089-0.149-0.232-0.149-0.43s0.05-0.346,0.149-0.444
		c0.101-0.099,0.235-0.148,0.406-0.148h2.494c0-0.42-0.003-0.81-0.007-1.17C42.723,46.527,42.72,46.218,42.72,45.958z"/>
	<path fill="#FF746D" stroke="#FF746D" stroke-width="0.2" stroke-miterlimit="10" d="M48.207,47.263
		c-0.057,0-0.164,0.003-0.32,0.008c-0.157,0.005-0.32,0.007-0.491,0.007c-0.172,0-0.328,0.003-0.471,0.008s-0.233,0.008-0.271,0.008
		c-0.181,0.01-0.326-0.029-0.435-0.118c-0.109-0.089-0.174-0.203-0.192-0.341c-0.02-0.168,0.019-0.323,0.113-0.467
		c0.096-0.143,0.28-0.215,0.557-0.215c0.047,0,0.106-0.002,0.178-0.007s0.154-0.008,0.249-0.008c0.219-0.01,0.476-0.018,0.77-0.022
		c0.295-0.005,0.587-0.01,0.877-0.015c0.289-0.005,0.563-0.01,0.819-0.016c0.256-0.005,0.456-0.012,0.599-0.022
		c0.475-0.02,0.785,0.055,0.933,0.223s0.184,0.498,0.107,0.992c-0.096,0.61-0.269,1.195-0.521,1.756
		c-0.252,0.56-0.572,1.082-0.962,1.567c-0.39,0.484-0.841,0.935-1.354,1.35s-1.078,0.782-1.695,1.103
		c-0.058,0.03-0.127,0.058-0.207,0.082c-0.081,0.025-0.162,0.035-0.242,0.03c-0.081-0.005-0.157-0.027-0.229-0.067
		s-0.126-0.115-0.163-0.225c-0.048-0.15-0.046-0.295,0.007-0.436c0.052-0.14,0.149-0.25,0.292-0.33
		c0.38-0.22,0.765-0.475,1.154-0.765s0.75-0.622,1.083-0.997c0.332-0.375,0.627-0.803,0.884-1.283
		c0.256-0.479,0.446-1.024,0.569-1.635c0.01-0.03,0.017-0.07,0.021-0.12s-0.05-0.075-0.164-0.075c-0.161,0-0.36,0.003-0.598,0.008
		C48.867,47.245,48.568,47.253,48.207,47.263z M54.634,58.107c-0.01,0.26-0.078,0.45-0.206,0.57
		c-0.129,0.12-0.297,0.185-0.506,0.195c-0.409,0.02-0.725,0.034-0.948,0.045c-0.223,0.01-0.43,0.015-0.619,0.015
		c-0.19,0-0.404,0-0.642,0s-0.57,0-0.998,0h-1.738c-0.418,0-0.725-0.072-0.919-0.218c-0.194-0.145-0.292-0.427-0.292-0.847
		c0-0.251,0.002-0.528,0.007-0.833s0.007-0.627,0.007-0.968v-1.649c0-0.25,0.076-0.415,0.229-0.495
		c0.151-0.08,0.328-0.12,0.527-0.12h2.508c0.456,0,0.917,0,1.382,0c0.466,0,0.941-0.005,1.426-0.015
		c0.561-0.021,0.831,0.229,0.812,0.75v1.425c0,0.39-0.002,0.785-0.007,1.185C54.65,57.548,54.643,57.868,54.634,58.107z
		 M49.105,57.553c0,0.08,0.009,0.138,0.028,0.173c0.019,0.034,0.071,0.052,0.156,0.052c0.275,0,0.525,0.003,0.748,0.008
		c0.224,0.005,0.444,0.008,0.663,0.008c0.39,0,0.783-0.006,1.183-0.016s0.897-0.024,1.496-0.045v-2.475
		c0-0.09-0.012-0.155-0.035-0.195c-0.024-0.04-0.079-0.06-0.164-0.06c-0.323,0.01-0.718,0.015-1.183,0.015c-0.466,0-0.907,0-1.325,0
		c-0.343,0-0.632,0.003-0.869,0.008c-0.238,0.005-0.466,0.008-0.685,0.008c-0.01,0.39-0.014,0.808-0.014,1.252
		C49.105,56.73,49.105,57.152,49.105,57.553z M53.408,45.942c0-0.17,0.05-0.314,0.15-0.435c0.1-0.12,0.226-0.189,0.377-0.21
		c0.171-0.021,0.337,0.021,0.499,0.12c0.161,0.1,0.242,0.25,0.242,0.45c-0.01,0.51-0.015,1-0.015,1.47s0,0.965,0,1.484
		c0,0.511,0.003,1.07,0.008,1.681s-0.003,1.255-0.021,1.935c-0.01,0.2-0.076,0.357-0.199,0.473
		c-0.124,0.115-0.262,0.173-0.414,0.173c-0.181,0-0.335-0.058-0.463-0.173s-0.188-0.287-0.178-0.518c0.019-0.6,0.03-1.21,0.035-1.83
		s0.005-1.215,0-1.785c-0.005-0.569-0.01-1.1-0.014-1.59C53.411,46.698,53.408,46.283,53.408,45.942z"/>
</g>
<g>
	<path fill="#FF746D" d="M28.614,36.74c-2.459,0-4.828-0.125-5.804-0.326c-0.464-0.096-0.924-0.239-1.142-0.63
		c-0.381-0.685-0.022-1.499,4.963-9.299c1.82-2.848,4.073-6.374,4.333-7.167c-0.23-0.858-2.705-4.6-4.524-7.349
		c-4.463-6.748-5.137-7.975-4.806-8.751C22.447,1.309,35.311,2.75,35.438,2.77c0,0,0,0,0,0c1.877,0.31,10.75,15.403,10.978,16.429
		c0.481,2.167-10.519,16.72-10.642,16.814C35.1,36.533,31.783,36.74,28.614,36.74z M23.215,34.978
		c2.197,0.425,10.631,0.341,11.687-0.181c0.925-0.809,9.687-13.499,10.032-15.332c-0.567-1.693-8.436-14.192-9.835-15.229
		c-1.8-0.264-9.935-0.739-11.919-0.325c0.553,1.244,2.813,4.661,4.512,7.23c3.771,5.701,4.855,7.48,4.778,8.292
		c-0.071,0.749-1.379,2.859-4.575,7.86C26.153,30.018,23.845,33.629,23.215,34.978z"/>
</g>
</svg>
