<?xml version="1.0" encoding="utf-8"?>
<!-- Generator: Adobe Illustrator 19.1.0, SVG Export Plug-In . SVG Version: 6.00 Build 0)  -->
<svg version="1.1" id="아이콘" xmlns="http://www.w3.org/2000/svg" xmlns:xlink="http://www.w3.org/1999/xlink" x="0px" y="0px"
	 viewBox="0 0 68 60" enable-background="new 0 0 68 60" xml:space="preserve">
<g>
	<path fill="#FF746D" stroke="#FF746D" stroke-width="0.2" stroke-miterlimit="10" d="M22.386,46.663c0-0.261,0.033-0.48,0.1-0.66
		c0.066-0.181,0.237-0.271,0.514-0.271c0.208,0,0.363,0.083,0.463,0.248s0.145,0.393,0.135,0.683
		c-0.009,0.189-0.019,0.37-0.028,0.54s-0.023,0.34-0.043,0.51c0.143,0.689,0.33,1.362,0.563,2.018
		c0.232,0.655,0.501,1.303,0.805,1.942c0.076,0.19,0.083,0.365,0.021,0.524c-0.062,0.16-0.145,0.261-0.249,0.301
		c-0.171,0.069-0.316,0.072-0.435,0.007c-0.119-0.064-0.23-0.192-0.335-0.382c-0.313-0.58-0.608-1.255-0.884-2.025
		c-0.133,0.42-0.277,0.811-0.435,1.17c-0.156,0.36-0.315,0.69-0.478,0.99c-0.057,0.1-0.14,0.202-0.249,0.308
		c-0.109,0.104-0.23,0.162-0.363,0.172c-0.143,0.011-0.257-0.034-0.342-0.135c-0.086-0.1-0.167-0.215-0.242-0.345
		c-0.124-0.22-0.26-0.5-0.406-0.84c-0.147-0.34-0.288-0.715-0.421-1.125c-0.133,0.33-0.28,0.657-0.441,0.982
		c-0.162,0.325-0.338,0.667-0.527,1.027c-0.038,0.08-0.095,0.157-0.171,0.232s-0.159,0.138-0.25,0.188
		c-0.09,0.05-0.183,0.078-0.277,0.083s-0.181-0.028-0.257-0.098c-0.171-0.15-0.24-0.315-0.206-0.495
		c0.033-0.18,0.093-0.345,0.178-0.495c0.209-0.41,0.399-0.808,0.57-1.192s0.315-0.78,0.435-1.186
		c0.118-0.404,0.209-0.822,0.271-1.252s0.093-0.895,0.093-1.396c0-0.13,0.002-0.252,0.007-0.367s0.026-0.218,0.064-0.308
		s0.097-0.16,0.178-0.21s0.202-0.075,0.363-0.075c0.219,0,0.378,0.07,0.478,0.21c0.1,0.141,0.145,0.386,0.136,0.735
		c-0.01,0.47-0.038,0.92-0.086,1.35c0.104,0.62,0.235,1.168,0.393,1.643c0.156,0.476,0.32,0.918,0.491,1.328
		c0.133-0.33,0.254-0.658,0.363-0.982c0.109-0.325,0.202-0.663,0.278-1.013c0.075-0.351,0.133-0.718,0.171-1.103
		C22.367,47.516,22.386,47.103,22.386,46.663z M26.632,58.888c-0.38,0.02-0.738,0.032-1.075,0.037
		c-0.338,0.005-0.701,0.011-1.09,0.016c-0.39,0.005-0.827,0.005-1.312,0s-1.064-0.008-1.738-0.008c-0.418,0-0.698-0.075-0.841-0.225
		c-0.143-0.15-0.214-0.41-0.214-0.78c0-0.25,0.002-0.54,0.007-0.87s0.008-0.649,0.008-0.96v-1.53c0-0.249,0.054-0.417,0.163-0.502
		s0.259-0.128,0.449-0.128c0.532,0.011,1.014,0.016,1.446,0.016s0.855,0,1.269,0s0.836-0.003,1.269-0.008
		c0.432-0.005,0.904-0.013,1.417-0.022c0.333-0.01,0.561,0.048,0.685,0.173c0.123,0.125,0.181,0.317,0.171,0.577
		c-0.01,0.479-0.015,0.935-0.015,1.365v2.069C27.231,58.618,27.032,58.878,26.632,58.888z M21.902,57.763
		c0.275,0,0.522,0.002,0.741,0.008c0.218,0.005,0.437,0.007,0.655,0.007c0.39,0,0.781-0.002,1.176-0.007
		c0.394-0.006,0.891-0.018,1.489-0.038v-2.461c0-0.079-0.017-0.124-0.05-0.134c-0.034-0.01-0.074-0.015-0.121-0.015h-1.896
		c-0.19,0-0.388-0.003-0.592-0.008s-0.406-0.008-0.605-0.008s-0.385,0-0.556,0s-0.313,0-0.428,0
		c-0.01,0.378-0.014,0.775-0.014,1.193s0,0.82,0,1.208c0,0.06,0.007,0.117,0.021,0.172C21.738,57.735,21.797,57.763,21.902,57.763z
		 M25.963,45.973c-0.01-0.189,0.04-0.35,0.149-0.479s0.272-0.195,0.491-0.195c0.162,0,0.302,0.045,0.421,0.135
		c0.118,0.09,0.192,0.22,0.221,0.39c0.01,0.061,0.015,0.143,0.015,0.248c0,0.104,0,0.218,0,0.338c0,0.05,0,0.103,0,0.157
		s0.002,0.147,0.007,0.277s0.007,0.308,0.007,0.532c0,0.226,0,0.527,0,0.908c0,0.68,0.002,1.395,0.007,2.145
		s-0.002,1.465-0.021,2.145c-0.01,0.2-0.076,0.363-0.2,0.488c-0.123,0.125-0.266,0.188-0.428,0.188c-0.18,0-0.342-0.058-0.484-0.173
		s-0.204-0.303-0.185-0.563c0.019-0.52,0.03-1.027,0.035-1.522s0.007-0.987,0.007-1.478h-0.284c-0.172,0-0.335,0-0.492,0
		c-0.156,0-0.277-0.005-0.363-0.015c-0.161-0.021-0.295-0.078-0.398-0.173c-0.105-0.095-0.157-0.237-0.157-0.428
		c0-0.21,0.068-0.364,0.207-0.465c0.137-0.1,0.287-0.145,0.448-0.135c0.104,0.01,0.232,0.015,0.385,0.015s0.318,0,0.499,0h0.156
		c0-0.369-0.002-0.739-0.007-1.109S25.982,46.423,25.963,45.973z"/>
	<path fill="#FF746D" stroke="#FF746D" stroke-width="0.2" stroke-miterlimit="10" d="M30.737,53.878
		c0.038,0.03,0.095,0.045,0.171,0.045c0.37,0,0.793-0.022,1.269-0.067c0.475-0.045,0.921-0.117,1.339-0.218
		c0.172-0.04,0.321-0.02,0.449,0.06c0.128,0.081,0.211,0.2,0.249,0.358c0.02,0.109,0.02,0.205,0,0.289
		c-0.019,0.084-0.055,0.158-0.106,0.223c-0.053,0.064-0.109,0.116-0.171,0.155c-0.062,0.04-0.126,0.064-0.192,0.074
		c-0.637,0.128-1.226,0.218-1.768,0.267c-0.541,0.05-1.025,0.069-1.453,0.06c-0.209,0-0.387-0.02-0.534-0.06
		c-0.147-0.039-0.267-0.104-0.356-0.192s-0.156-0.21-0.199-0.363s-0.064-0.354-0.064-0.6c0-0.141,0.002-0.418,0.007-0.833
		s0.013-0.893,0.021-1.433c0-0.42,0.003-0.85,0.008-1.29c0.004-0.439,0.009-0.859,0.014-1.26c0.005-0.399,0.01-0.755,0.015-1.065
		c0.005-0.31,0.007-0.54,0.007-0.689v-0.75c0-0.2,0.066-0.365,0.199-0.495c0.134-0.13,0.29-0.195,0.471-0.195
		c0.437,0,0.655,0.221,0.655,0.66c-0.019,0.34-0.031,0.748-0.035,1.223c-0.005,0.475-0.013,0.978-0.021,1.508
		c-0.01,0.53-0.017,1.067-0.021,1.612s-0.007,1.058-0.007,1.537v1.245C30.68,53.783,30.699,53.848,30.737,53.878z M33.017,49.603
		c0.161,0,0.425-0.002,0.791-0.007c0.365-0.006,0.762-0.008,1.189-0.008l-0.015-1.995c0-0.229-0.007-0.473-0.021-0.728
		c-0.015-0.255-0.018-0.527-0.008-0.817c0.02-0.2,0.086-0.362,0.2-0.487c0.113-0.125,0.251-0.188,0.413-0.188
		c0.143,0,0.277,0.047,0.406,0.143c0.128,0.095,0.192,0.272,0.192,0.532c0,0.16,0.002,0.385,0.007,0.675s0.007,0.617,0.007,0.982
		s0.002,0.745,0.007,1.141c0.005,0.395,0.008,0.777,0.008,1.147c0,0.89-0.005,1.762-0.015,2.617c-0.01,0.854-0.01,1.737,0,2.647
		c0,0.21,0.002,0.438,0.007,0.683s0.008,0.482,0.008,0.712c0,0.23,0,0.45,0,0.66s0,0.391,0,0.54c0,0.26-0.069,0.447-0.207,0.563
		s-0.277,0.173-0.42,0.173c-0.219,0-0.376-0.08-0.471-0.24s-0.143-0.325-0.143-0.495c0.01-0.32,0.015-0.638,0.015-0.952
		c0-0.315,0-0.617,0-0.907c0-0.38,0.007-0.755,0.021-1.125c0.014-0.37,0.017-0.745,0.007-1.125c-0.01-0.4-0.012-0.868-0.007-1.403
		c0.004-0.534,0.007-1.042,0.007-1.522c-0.114,0-0.257,0-0.428,0s-0.352,0.003-0.541,0.008c-0.19,0.005-0.376,0.008-0.556,0.008
		c-0.181,0-0.333,0-0.456,0c-0.171,0-0.313-0.05-0.428-0.15c-0.114-0.1-0.171-0.255-0.171-0.465s0.057-0.365,0.171-0.465
		S32.846,49.603,33.017,49.603z M37.406,50.232c0-0.899,0-1.729,0-2.489c0-0.761-0.005-1.4-0.015-1.921
		c0.02-0.21,0.083-0.372,0.192-0.487c0.109-0.114,0.245-0.172,0.406-0.172c0.171,0,0.318,0.05,0.442,0.149
		c0.123,0.101,0.185,0.28,0.185,0.54v0.9c0,0.39,0.003,0.832,0.008,1.327c0.004,0.495,0.007,1.016,0.007,1.561s0,1.098,0,1.657
		s0,1.095,0,1.604c0,0.75,0.002,1.513,0.007,2.288c0.005,0.774,0.008,1.527,0.008,2.257v0.165c0,0.12,0.002,0.248,0.007,0.383
		s-0.003,0.237-0.021,0.308v-0.015c-0.038,0.199-0.112,0.335-0.221,0.404c-0.109,0.07-0.235,0.105-0.378,0.105
		c-0.219,0-0.378-0.08-0.478-0.24s-0.149-0.32-0.149-0.479V50.232z"/>
	<path fill="#FF746D" stroke="#FF746D" stroke-width="0.2" stroke-miterlimit="10" d="M43.048,45.522
		c0.494-0.04,0.924,0.018,1.29,0.172c0.365,0.155,0.667,0.385,0.905,0.689c0.237,0.304,0.41,0.673,0.52,1.107
		c0.109,0.434,0.159,0.91,0.149,1.429c-0.019,0.957-0.249,1.693-0.69,2.207c-0.442,0.514-1.109,0.771-2.003,0.771
		c-0.484,0-0.897-0.079-1.239-0.239c-0.342-0.159-0.622-0.381-0.841-0.666c-0.219-0.284-0.378-0.626-0.478-1.025
		c-0.1-0.398-0.149-0.838-0.149-1.316c0-1.008,0.228-1.766,0.684-2.274S42.27,45.583,43.048,45.522z M43.063,46.723
		c-0.247,0.03-0.451,0.103-0.612,0.218c-0.162,0.115-0.293,0.26-0.393,0.435c-0.1,0.176-0.169,0.37-0.206,0.585
		c-0.038,0.216-0.058,0.428-0.058,0.638c0,0.28,0.023,0.545,0.071,0.795s0.126,0.468,0.235,0.652
		c0.109,0.186,0.254,0.333,0.435,0.442c0.181,0.11,0.408,0.165,0.684,0.165c0.552,0,0.929-0.159,1.134-0.479
		c0.204-0.32,0.306-0.74,0.306-1.26c0-0.75-0.121-1.317-0.363-1.703c-0.242-0.385-0.648-0.547-1.218-0.487H43.063z M42.792,54.628
		c-0.19,0-0.33-0.075-0.421-0.226c-0.09-0.149-0.126-0.305-0.106-0.465c0.019-0.14,0.085-0.263,0.199-0.367
		c0.114-0.105,0.266-0.157,0.456-0.157c0.418,0,0.889,0,1.411,0s1.033-0.003,1.531-0.008c0.499-0.005,0.955-0.01,1.368-0.015
		s0.72-0.018,0.919-0.038c0.237-0.02,0.428-0.018,0.57,0.008s0.252,0.072,0.328,0.143c0.075,0.07,0.128,0.165,0.156,0.285
		s0.043,0.265,0.043,0.435v0.975c0,0.15,0.002,0.306,0.007,0.466s0.002,0.3-0.007,0.42c-0.01,0.52-0.271,0.779-0.784,0.779h-1.938
		c-0.532,0-1.053,0-1.561,0c-0.509,0-0.952,0.005-1.332,0.016v0.899c0,0.08,0.009,0.133,0.028,0.158
		c0.019,0.024,0.066,0.037,0.143,0.037c0.095,0,0.194,0.002,0.299,0.008c0.104,0.005,0.209,0.007,0.313,0.007
		c0.209,0,0.428,0,0.655,0c0.229,0,0.466-0.005,0.713-0.015c0.332-0.01,0.675-0.018,1.026-0.022
		c0.351-0.005,0.712-0.008,1.083-0.008c0.143,0,0.284-0.01,0.427-0.029c0.143-0.021,0.305-0.03,0.485-0.03
		c0.228-0.021,0.405,0.032,0.534,0.157c0.128,0.125,0.192,0.268,0.192,0.428c0,0.14-0.043,0.265-0.129,0.375
		c-0.085,0.11-0.209,0.185-0.37,0.225c-0.066,0.021-0.183,0.035-0.349,0.045c-0.167,0.011-0.388,0.016-0.663,0.016
		c-0.456,0-0.897,0.002-1.325,0.007c-0.428,0.006-0.836,0.013-1.226,0.023c-0.237,0.01-0.489,0.015-0.755,0.015
		c-0.267,0-0.49,0-0.67,0c-0.143,0-0.292,0-0.449,0c-0.156,0-0.282-0.005-0.378-0.015c-0.209-0.011-0.372-0.041-0.491-0.091
		s-0.209-0.113-0.271-0.188c-0.063-0.075-0.103-0.168-0.121-0.278c-0.02-0.11-0.028-0.236-0.028-0.377v-0.572
		c0-0.171-0.003-0.356-0.008-0.558s-0.007-0.417-0.007-0.647c0-0.281,0.057-0.482,0.171-0.603s0.3-0.181,0.556-0.181
		c0.38,0,0.786,0.002,1.219,0.007c0.432,0.006,0.864,0.008,1.297,0.008c0.432,0,0.854-0.002,1.268-0.008
		c0.414-0.005,0.801-0.017,1.162-0.037v-0.888c0-0.039-0.005-0.076-0.015-0.11c-0.01-0.035-0.057-0.052-0.143-0.052
		c-0.237,0-0.556,0.002-0.955,0.007c-0.398,0.006-0.831,0.011-1.296,0.016c-0.466,0.005-0.941,0.01-1.426,0.015
		S43.201,54.628,42.792,54.628z M47.979,45.942c0-0.21,0.064-0.369,0.192-0.479c0.129-0.11,0.278-0.165,0.449-0.165
		c0.151,0,0.299,0.048,0.441,0.143s0.214,0.253,0.214,0.473c-0.01,0.449-0.015,0.872-0.015,1.268c0,0.395,0,0.817,0,1.267
		c0,0.57,0,1.115,0,1.636c0,0.52-0.009,1.095-0.028,1.725c-0.01,0.19-0.06,0.37-0.149,0.54s-0.273,0.245-0.549,0.225
		c-0.189-0.01-0.335-0.074-0.435-0.194s-0.145-0.32-0.135-0.601c0.019-0.42,0.03-0.899,0.035-1.439s0.007-1.11,0.007-1.71
		c0-0.521-0.002-0.992-0.007-1.418C47.996,46.785,47.989,46.362,47.979,45.942z"/>
</g>
<g>
	<path fill="#FF746D" d="M23.908,36.75c-0.2,0-0.393-0.08-0.533-0.223c-0.144-0.145-0.222-0.342-0.217-0.546
		c0.013-0.49-0.192-0.863-0.607-1.107c-0.523-0.309-1.26-0.322-1.751-0.033c-0.371,0.218-0.553,0.579-0.541,1.073
		c0.01,0.408-0.309,0.749-0.717,0.767c-3.527,0.158-3.875-0.527-4.021-0.82c-0.333-0.666-0.448-14.721-0.46-16.321
		c-0.12-15.92,0.31-16.471,0.541-16.765l0,0c0.228-0.292,0.444-0.568,4.408-0.422c0.412,0.015,0.735,0.36,0.722,0.772
		c-0.003,0.116-0.014,0.47,0.446,0.743c0.511,0.303,1.288,0.317,1.768,0.035c0.293-0.173,0.425-0.42,0.416-0.78
		c-0.006-0.202,0.07-0.398,0.211-0.543s0.334-0.228,0.536-0.228l19.63-0.067c0,0,0.001,0,0.002,0c0.202,0,0.395,0.081,0.536,0.226
		c0.142,0.145,0.219,0.341,0.214,0.543c-0.011,0.443,0.187,0.79,0.588,1.031c0.625,0.375,1.566,0.393,2.188,0.04
		c0.402-0.228,0.598-0.562,0.598-1.021c0-0.382,0.288-0.703,0.667-0.746c2.752-0.304,3.227,0.089,3.405,0.237
		c0.333,0.277,0.553,0.46,0.862,16.494c0.305,15.835,0.087,16.271,0.005,16.435c-0.15,0.299-0.504,1.002-3.921,0.682
		c-0.366-0.034-0.654-0.329-0.679-0.695c-0.049-0.718-0.51-1.082-0.888-1.261c-0.696-0.33-1.612-0.279-2.178,0.123
		c-0.403,0.286-0.577,0.716-0.517,1.279c0.022,0.209-0.044,0.419-0.185,0.577c-0.14,0.158-0.34,0.25-0.551,0.252L23.918,36.75
		C23.915,36.75,23.912,36.75,23.908,36.75z M21.628,33.132c0.585,0,1.176,0.15,1.684,0.449c0.649,0.383,1.087,0.966,1.261,1.659
		l18.568-0.251c0.108-0.754,0.495-1.392,1.13-1.842c1.012-0.718,2.494-0.82,3.689-0.254c0.82,0.389,1.389,1.048,1.626,1.86
		c0.755,0.042,1.476,0.029,1.845-0.036c0.17-3.311-0.327-27.554-0.631-30.952c-0.343-0.026-0.915-0.016-1.518,0.03
		c-0.172,0.691-0.611,1.259-1.276,1.636c-1.09,0.618-2.61,0.594-3.698-0.059c-0.626-0.375-1.05-0.931-1.226-1.583L24.766,3.85
		c-0.163,0.563-0.528,1.034-1.059,1.346c-0.955,0.562-2.309,0.546-3.293-0.037c-0.54-0.32-0.913-0.783-1.081-1.326
		c-0.991-0.021-2.015-0.016-2.531,0.027c-0.474,3.371-0.187,28,0.083,31.207c0.37,0.085,1.152,0.144,1.947,0.131
		c0.162-0.702,0.581-1.283,1.208-1.651C20.511,33.27,21.067,33.132,21.628,33.132z"/>
	<path fill="#FF746D" d="M32.708,18.09c-3.071,0-5.852-0.097-6.128-0.429c-0.616-0.733-0.43-9.324-0.279-9.784
		c0.139-0.422,0.435-0.552,0.6-0.592c1.344-0.325,13.788-0.118,14.305-0.003c0.603,0.132,0.85,0.342,0.918,4.241
		c0.108,6.143-0.309,6.25-0.837,6.386C41.22,17.926,36.717,18.09,32.708,18.09z M27.812,16.504
		c2.14,0.104,10.526,0.049,12.705-0.035c0.173-1.525,0.153-6.303-0.035-7.75c-2.089-0.096-10.661-0.188-12.808-0.027
		C27.535,10.164,27.676,14.938,27.812,16.504z"/>
	<path fill="#FF746D" d="M32.704,31.967c-3.069,0-5.847-0.097-6.124-0.431c-0.616-0.732-0.429-9.323-0.278-9.783
		c0.139-0.422,0.435-0.552,0.6-0.592c1.348-0.326,13.789-0.118,14.306-0.003c0.602,0.132,0.849,0.341,0.917,4.246
		c0.107,6.139-0.31,6.246-0.837,6.38C41.22,31.802,36.714,31.967,32.704,31.967z M27.812,30.38
		c2.14,0.103,10.527,0.049,12.705-0.035c0.173-1.525,0.153-6.302-0.035-7.75c-2.09-0.096-10.66-0.189-12.808-0.028
		C27.535,24.04,27.676,28.814,27.812,30.38z"/>
	<path fill="#FF746D" d="M21.887,30.302c-0.259,0-0.522-0.05-0.772-0.152c-0.717-0.291-1.241-0.947-1.438-1.799
		c-0.387-1.675,0.492-2.745,1.011-3.077h0c0.573-0.366,1.247-0.46,1.85-0.259c0.441,0.148,1.04,0.52,1.386,1.453
		c0.363,0.979,0.225,2.75-0.98,3.527C22.627,30.199,22.26,30.302,21.887,30.302z M21.495,26.538
		c-0.128,0.082-0.566,0.574-0.357,1.476c0.085,0.37,0.282,0.643,0.541,0.748c0.161,0.063,0.325,0.055,0.451-0.026
		c0.476-0.307,0.563-1.271,0.387-1.745c-0.077-0.208-0.219-0.473-0.457-0.553C21.894,26.382,21.682,26.419,21.495,26.538
		L21.495,26.538z"/>
	<path fill="#FF746D" d="M21.887,21.909c-0.259,0-0.522-0.05-0.772-0.152c-0.717-0.291-1.241-0.947-1.438-1.799
		c-0.387-1.676,0.492-2.745,1.011-3.077l0,0c0.573-0.367,1.248-0.46,1.85-0.259c0.441,0.148,1.04,0.52,1.386,1.453
		c0.363,0.979,0.225,2.75-0.98,3.527C22.627,21.805,22.26,21.909,21.887,21.909z M21.896,18.018c-0.13,0-0.272,0.043-0.401,0.126
		c0,0,0,0-0.001,0c-0.128,0.082-0.565,0.572-0.356,1.475c0.085,0.37,0.282,0.643,0.541,0.748c0.161,0.064,0.325,0.055,0.451-0.026
		c0.476-0.307,0.563-1.271,0.387-1.745c-0.077-0.208-0.219-0.473-0.457-0.553C22.009,18.026,21.954,18.018,21.896,18.018z"/>
	<path fill="#FF746D" d="M21.887,13.109c-0.26,0-0.522-0.05-0.773-0.152c-0.717-0.291-1.241-0.947-1.438-1.799
		c-0.387-1.676,0.492-2.745,1.011-3.077l0,0c0.574-0.366,1.248-0.461,1.85-0.259c0.441,0.148,1.041,0.52,1.387,1.453
		c0.363,0.979,0.224,2.75-0.98,3.527C22.627,13.005,22.26,13.109,21.887,13.109z M21.896,9.219c-0.13,0-0.271,0.043-0.401,0.126
		c0,0,0,0-0.001,0c-0.128,0.082-0.565,0.572-0.356,1.475c0.085,0.371,0.282,0.643,0.541,0.748c0.16,0.065,0.325,0.057,0.451-0.026
		c0.476-0.307,0.563-1.271,0.387-1.745c-0.077-0.208-0.219-0.473-0.457-0.552C22.009,9.227,21.954,9.219,21.896,9.219z"/>
	<path fill="#FF746D" d="M46.229,30.302c-0.26,0-0.522-0.05-0.773-0.152c-0.716-0.291-1.24-0.947-1.438-1.799
		c-0.388-1.674,0.491-2.745,1.011-3.077c0,0,0,0,0,0c0.574-0.366,1.249-0.46,1.85-0.259c0.441,0.148,1.04,0.52,1.386,1.453
		c0.363,0.978,0.225,2.749-0.98,3.527C46.97,30.199,46.602,30.302,46.229,30.302z M45.837,26.538
		c-0.129,0.083-0.566,0.574-0.357,1.475c0.086,0.371,0.283,0.643,0.541,0.748c0.161,0.063,0.325,0.055,0.452-0.026
		c0.476-0.308,0.563-1.271,0.387-1.745c-0.077-0.208-0.219-0.474-0.457-0.553C46.234,26.381,46.024,26.419,45.837,26.538z"/>
	<path fill="#FF746D" d="M46.229,21.909c-0.26,0-0.522-0.05-0.773-0.152c-0.716-0.291-1.24-0.947-1.438-1.799
		c-0.388-1.675,0.491-2.745,1.011-3.077l0,0c0.574-0.367,1.249-0.461,1.85-0.259c0.441,0.148,1.04,0.52,1.386,1.453
		c0.363,0.978,0.225,2.749-0.98,3.527C46.97,21.805,46.602,21.909,46.229,21.909z M46.239,18.018c-0.13,0-0.272,0.043-0.402,0.126
		c0,0,0,0,0,0c-0.128,0.082-0.566,0.573-0.357,1.474c0.086,0.371,0.283,0.643,0.541,0.748c0.161,0.064,0.325,0.055,0.452-0.026
		c0.476-0.308,0.563-1.271,0.387-1.745c-0.077-0.208-0.219-0.474-0.457-0.553C46.352,18.026,46.297,18.018,46.239,18.018z"/>
	<path fill="#FF746D" d="M46.229,13.109c-0.26,0-0.523-0.05-0.773-0.152c-0.717-0.291-1.24-0.947-1.438-1.799
		C43.63,9.483,44.51,8.413,45.03,8.081l0,0c0.574-0.368,1.248-0.461,1.85-0.259c0.441,0.148,1.04,0.52,1.386,1.453
		c0.363,0.979,0.225,2.749-0.98,3.527C46.969,13.005,46.602,13.109,46.229,13.109z M46.239,9.219c-0.13,0-0.272,0.043-0.402,0.126
		c0,0,0,0,0,0c-0.128,0.082-0.566,0.573-0.357,1.474c0.086,0.371,0.283,0.643,0.541,0.748c0.16,0.065,0.325,0.055,0.452-0.026
		c0.441-0.285,0.584-1.213,0.387-1.745c-0.077-0.208-0.219-0.473-0.457-0.553C46.352,9.227,46.296,9.219,46.239,9.219z"/>
</g>
</svg>
